solid ASCII
  facet normal 0.000000e+00 0.000000e+00 1.000000e+00
    outer loop
      vertex   -4.850000e+00 2.000000e+01 -6.650000e+00
      vertex   -6.350000e+00 2.000000e+01 -6.650000e+00
      vertex   -4.850000e+00 9.000000e+00 -6.650000e+00
    endloop
  endfacet
  facet normal 0.000000e+00 0.000000e+00 1.000000e+00
    outer loop
      vertex   -4.850000e+00 9.000000e+00 -6.650000e+00
      vertex   -6.350000e+00 2.000000e+01 -6.650000e+00
      vertex   -6.350000e+00 9.000000e+00 -6.650000e+00
    endloop
  endfacet
  facet normal 0.000000e+00 0.000000e+00 -1.000000e+00
    outer loop
      vertex   -6.350000e+00 2.000000e+01 6.650000e+00
      vertex   -4.850000e+00 2.000000e+01 6.650000e+00
      vertex   -6.350000e+00 9.000000e+00 6.650000e+00
    endloop
  endfacet
  facet normal 0.000000e+00 0.000000e+00 -1.000000e+00
    outer loop
      vertex   -6.350000e+00 9.000000e+00 6.650000e+00
      vertex   -4.850000e+00 2.000000e+01 6.650000e+00
      vertex   -4.850000e+00 9.000000e+00 6.650000e+00
    endloop
  endfacet
  facet normal 0.000000e+00 1.000000e+00 0.000000e+00
    outer loop
      vertex   -4.850000e+00 9.000000e+00 6.650000e+00
      vertex   -4.850000e+00 9.000000e+00 -6.650000e+00
      vertex   -6.350000e+00 9.000000e+00 6.650000e+00
    endloop
  endfacet
  facet normal 0.000000e+00 1.000000e+00 0.000000e+00
    outer loop
      vertex   -6.350000e+00 9.000000e+00 6.650000e+00
      vertex   -4.850000e+00 9.000000e+00 -6.650000e+00
      vertex   -6.350000e+00 9.000000e+00 -6.650000e+00
    endloop
  endfacet
  facet normal 0.000000e+00 1.000000e+00 0.000000e+00
    outer loop
      vertex   -6.350000e+00 2.000000e+01 6.650000e+00
      vertex   -6.350000e+00 2.000000e+01 1.030000e+01
      vertex   -4.850000e+00 2.000000e+01 9.800000e+00
    endloop
  endfacet
  facet normal 0.000000e+00 1.000000e+00 -0.000000e+00
    outer loop
      vertex   -4.850000e+00 2.000000e+01 9.800000e+00
      vertex   -6.350000e+00 2.000000e+01 1.030000e+01
      vertex   -4.350000e+00 2.000000e+01 1.230000e+01
    endloop
  endfacet
  facet normal 0.000000e+00 1.000000e+00 0.000000e+00
    outer loop
      vertex   -4.850000e+00 2.000000e+01 9.800000e+00
      vertex   -4.350000e+00 2.000000e+01 1.230000e+01
      vertex   4.850000e+00 2.000000e+01 9.800000e+00
    endloop
  endfacet
  facet normal 0.000000e+00 1.000000e+00 -0.000000e+00
    outer loop
      vertex   4.850000e+00 2.000000e+01 9.800000e+00
      vertex   -4.350000e+00 2.000000e+01 1.230000e+01
      vertex   7.350000e+00 2.000000e+01 1.230000e+01
    endloop
  endfacet
  facet normal -0.000000e+00 1.000000e+00 0.000000e+00
    outer loop
      vertex   4.850000e+00 2.000000e+01 9.800000e+00
      vertex   7.350000e+00 2.000000e+01 1.230000e+01
      vertex   7.350000e+00 2.000000e+01 -1.230000e+01
    endloop
  endfacet
  facet normal 0.000000e+00 1.000000e+00 0.000000e+00
    outer loop
      vertex   4.850000e+00 2.000000e+01 9.800000e+00
      vertex   7.350000e+00 2.000000e+01 -1.230000e+01
      vertex   4.850000e+00 2.000000e+01 -9.800000e+00
    endloop
  endfacet
  facet normal 0.000000e+00 1.000000e+00 0.000000e+00
    outer loop
      vertex   4.850000e+00 2.000000e+01 -9.800000e+00
      vertex   7.350000e+00 2.000000e+01 -1.230000e+01
      vertex   -4.350000e+00 2.000000e+01 -1.230000e+01
    endloop
  endfacet
  facet normal 0.000000e+00 1.000000e+00 0.000000e+00
    outer loop
      vertex   4.850000e+00 2.000000e+01 -9.800000e+00
      vertex   -4.350000e+00 2.000000e+01 -1.230000e+01
      vertex   -4.850000e+00 2.000000e+01 -9.800000e+00
    endloop
  endfacet
  facet normal 0.000000e+00 1.000000e+00 0.000000e+00
    outer loop
      vertex   -4.850000e+00 2.000000e+01 -9.800000e+00
      vertex   -4.350000e+00 2.000000e+01 -1.230000e+01
      vertex   -6.350000e+00 2.000000e+01 -1.030000e+01
    endloop
  endfacet
  facet normal 0.000000e+00 1.000000e+00 0.000000e+00
    outer loop
      vertex   -4.850000e+00 2.000000e+01 -9.800000e+00
      vertex   -6.350000e+00 2.000000e+01 -1.030000e+01
      vertex   -6.350000e+00 2.000000e+01 -6.650000e+00
    endloop
  endfacet
  facet normal -0.000000e+00 1.000000e+00 0.000000e+00
    outer loop
      vertex   -6.350000e+00 2.000000e+01 -6.650000e+00
      vertex   -4.850000e+00 2.000000e+01 -6.650000e+00
      vertex   -4.850000e+00 2.000000e+01 -9.800000e+00
    endloop
  endfacet
  facet normal 0.000000e+00 1.000000e+00 0.000000e+00
    outer loop
      vertex   -4.850000e+00 2.000000e+01 9.800000e+00
      vertex   -4.850000e+00 2.000000e+01 6.650000e+00
      vertex   -6.350000e+00 2.000000e+01 6.650000e+00
    endloop
  endfacet
  facet normal -1.000000e+00 -0.000000e+00 0.000000e+00
    outer loop
      vertex   -6.350000e+00 2.000000e+01 1.030000e+01
      vertex   -6.350000e+00 9.000000e+00 6.650000e+00
      vertex   -6.350000e+00 2.000000e+00 1.030000e+01
    endloop
  endfacet
  facet normal -1.000000e+00 0.000000e+00 0.000000e+00
    outer loop
      vertex   -6.350000e+00 2.000000e+00 1.030000e+01
      vertex   -6.350000e+00 9.000000e+00 6.650000e+00
      vertex   -6.350000e+00 9.000000e+00 -6.650000e+00
    endloop
  endfacet
  facet normal -1.000000e+00 0.000000e+00 0.000000e+00
    outer loop
      vertex   -6.350000e+00 2.000000e+00 1.030000e+01
      vertex   -6.350000e+00 9.000000e+00 -6.650000e+00
      vertex   -6.350000e+00 2.000000e+00 -1.030000e+01
    endloop
  endfacet
  facet normal -1.000000e+00 0.000000e+00 0.000000e+00
    outer loop
      vertex   -6.350000e+00 2.000000e+00 -1.030000e+01
      vertex   -6.350000e+00 9.000000e+00 -6.650000e+00
      vertex   -6.350000e+00 2.000000e+01 -1.030000e+01
    endloop
  endfacet
  facet normal -1.000000e+00 0.000000e+00 0.000000e+00
    outer loop
      vertex   -6.350000e+00 2.000000e+01 -1.030000e+01
      vertex   -6.350000e+00 9.000000e+00 -6.650000e+00
      vertex   -6.350000e+00 2.000000e+01 -6.650000e+00
    endloop
  endfacet
  facet normal -1.000000e+00 0.000000e+00 -0.000000e+00
    outer loop
      vertex   -6.350000e+00 2.000000e+01 1.030000e+01
      vertex   -6.350000e+00 2.000000e+01 6.650000e+00
      vertex   -6.350000e+00 9.000000e+00 6.650000e+00
    endloop
  endfacet
  facet normal -1.000000e+00 -0.000000e+00 -0.000000e+00
    outer loop
      vertex   4.850000e+00 2.000000e+01 9.800000e+00
      vertex   4.850000e+00 2.000000e+01 -9.800000e+00
      vertex   4.850000e+00 2.500000e+00 9.800000e+00
    endloop
  endfacet
  facet normal -1.000000e+00 0.000000e+00 0.000000e+00
    outer loop
      vertex   4.850000e+00 2.500000e+00 9.800000e+00
      vertex   4.850000e+00 2.000000e+01 -9.800000e+00
      vertex   4.850000e+00 2.500000e+00 -9.800000e+00
    endloop
  endfacet
  facet normal 0.000000e+00 0.000000e+00 1.000000e+00
    outer loop
      vertex   4.850000e+00 2.000000e+01 -9.800000e+00
      vertex   -4.850000e+00 2.000000e+01 -9.800000e+00
      vertex   4.850000e+00 2.500000e+00 -9.800000e+00
    endloop
  endfacet
  facet normal 0.000000e+00 0.000000e+00 1.000000e+00
    outer loop
      vertex   4.850000e+00 2.500000e+00 -9.800000e+00
      vertex   -4.850000e+00 2.000000e+01 -9.800000e+00
      vertex   -4.850000e+00 2.500000e+00 -9.800000e+00
    endloop
  endfacet
  facet normal 1.000000e+00 0.000000e+00 -0.000000e+00
    outer loop
      vertex   -4.850000e+00 2.000000e+01 6.650000e+00
      vertex   -4.850000e+00 2.000000e+01 9.800000e+00
      vertex   -4.850000e+00 9.000000e+00 6.650000e+00
    endloop
  endfacet
  facet normal 1.000000e+00 0.000000e+00 -0.000000e+00
    outer loop
      vertex   -4.850000e+00 9.000000e+00 6.650000e+00
      vertex   -4.850000e+00 2.000000e+01 9.800000e+00
      vertex   -4.850000e+00 2.500000e+00 9.800000e+00
    endloop
  endfacet
  facet normal 1.000000e+00 0.000000e+00 0.000000e+00
    outer loop
      vertex   -4.850000e+00 9.000000e+00 6.650000e+00
      vertex   -4.850000e+00 2.500000e+00 9.800000e+00
      vertex   -4.850000e+00 2.500000e+00 -9.800000e+00
    endloop
  endfacet
  facet normal 1.000000e+00 0.000000e+00 0.000000e+00
    outer loop
      vertex   -4.850000e+00 9.000000e+00 6.650000e+00
      vertex   -4.850000e+00 2.500000e+00 -9.800000e+00
      vertex   -4.850000e+00 9.000000e+00 -6.650000e+00
    endloop
  endfacet
  facet normal 1.000000e+00 0.000000e+00 0.000000e+00
    outer loop
      vertex   -4.850000e+00 9.000000e+00 -6.650000e+00
      vertex   -4.850000e+00 2.500000e+00 -9.800000e+00
      vertex   -4.850000e+00 2.000000e+01 -9.800000e+00
    endloop
  endfacet
  facet normal 1.000000e+00 -0.000000e+00 0.000000e+00
    outer loop
      vertex   -4.850000e+00 9.000000e+00 -6.650000e+00
      vertex   -4.850000e+00 2.000000e+01 -9.800000e+00
      vertex   -4.850000e+00 2.000000e+01 -6.650000e+00
    endloop
  endfacet
  facet normal 0.000000e+00 0.000000e+00 -1.000000e+00
    outer loop
      vertex   -4.850000e+00 2.000000e+01 9.800000e+00
      vertex   4.850000e+00 2.000000e+01 9.800000e+00
      vertex   -4.850000e+00 2.500000e+00 9.800000e+00
    endloop
  endfacet
  facet normal 0.000000e+00 0.000000e+00 -1.000000e+00
    outer loop
      vertex   -4.850000e+00 2.500000e+00 9.800000e+00
      vertex   4.850000e+00 2.000000e+01 9.800000e+00
      vertex   4.850000e+00 2.500000e+00 9.800000e+00
    endloop
  endfacet
  facet normal 0.000000e+00 1.000000e+00 0.000000e+00
    outer loop
      vertex   4.850000e+00 2.500000e+00 9.800000e+00
      vertex   4.850000e+00 2.500000e+00 -9.800000e+00
      vertex   -4.850000e+00 2.500000e+00 9.800000e+00
    endloop
  endfacet
  facet normal 0.000000e+00 1.000000e+00 0.000000e+00
    outer loop
      vertex   -4.850000e+00 2.500000e+00 9.800000e+00
      vertex   4.850000e+00 2.500000e+00 -9.800000e+00
      vertex   -4.850000e+00 2.500000e+00 -9.800000e+00
    endloop
  endfacet
  facet normal 0.000000e+00 0.000000e+00 1.000000e+00
    outer loop
      vertex   -4.350000e+00 0.000000e+00 1.230000e+01
      vertex   7.350000e+00 0.000000e+00 1.230000e+01
      vertex   -4.350000e+00 2.000000e+01 1.230000e+01
    endloop
  endfacet
  facet normal -0.000000e+00 0.000000e+00 1.000000e+00
    outer loop
      vertex   -4.350000e+00 2.000000e+01 1.230000e+01
      vertex   7.350000e+00 0.000000e+00 1.230000e+01
      vertex   7.350000e+00 2.000000e+01 1.230000e+01
    endloop
  endfacet
  facet normal 1.000000e+00 -0.000000e+00 0.000000e+00
    outer loop
      vertex   7.350000e+00 0.000000e+00 1.230000e+01
      vertex   7.350000e+00 0.000000e+00 -1.230000e+01
      vertex   7.350000e+00 2.000000e+01 1.230000e+01
    endloop
  endfacet
  facet normal 1.000000e+00 0.000000e+00 0.000000e+00
    outer loop
      vertex   7.350000e+00 2.000000e+01 1.230000e+01
      vertex   7.350000e+00 0.000000e+00 -1.230000e+01
      vertex   7.350000e+00 2.000000e+01 -1.230000e+01
    endloop
  endfacet
  facet normal 0.000000e+00 -1.000000e+00 0.000000e+00
    outer loop
      vertex   -4.350000e+00 0.000000e+00 1.230000e+01
      vertex   -4.350000e+00 0.000000e+00 -1.230000e+01
      vertex   7.350000e+00 0.000000e+00 1.230000e+01
    endloop
  endfacet
  facet normal 0.000000e+00 -1.000000e+00 -0.000000e+00
    outer loop
      vertex   7.350000e+00 0.000000e+00 1.230000e+01
      vertex   -4.350000e+00 0.000000e+00 -1.230000e+01
      vertex   7.350000e+00 0.000000e+00 -1.230000e+01
    endloop
  endfacet
  facet normal 0.000000e+00 0.000000e+00 -1.000000e+00
    outer loop
      vertex   -4.350000e+00 2.000000e+01 -1.230000e+01
      vertex   7.350000e+00 2.000000e+01 -1.230000e+01
      vertex   -4.350000e+00 0.000000e+00 -1.230000e+01
    endloop
  endfacet
  facet normal 0.000000e+00 0.000000e+00 -1.000000e+00
    outer loop
      vertex   -4.350000e+00 0.000000e+00 -1.230000e+01
      vertex   7.350000e+00 2.000000e+01 -1.230000e+01
      vertex   7.350000e+00 0.000000e+00 -1.230000e+01
    endloop
  endfacet
  facet normal -7.071068e-01 -7.071068e-01 0.000000e+00
    outer loop
      vertex   -4.350000e+00 0.000000e+00 -1.230000e+01
      vertex   -4.350000e+00 0.000000e+00 1.230000e+01
      vertex   -6.350000e+00 2.000000e+00 -1.030000e+01
    endloop
  endfacet
  facet normal -7.071068e-01 -7.071068e-01 0.000000e+00
    outer loop
      vertex   -6.350000e+00 2.000000e+00 -1.030000e+01
      vertex   -4.350000e+00 0.000000e+00 1.230000e+01
      vertex   -6.350000e+00 2.000000e+00 1.030000e+01
    endloop
  endfacet
  facet normal -7.071069e-01 0.000000e+00 7.071067e-01
    outer loop
      vertex   -4.350000e+00 0.000000e+00 1.230000e+01
      vertex   -4.350000e+00 2.000000e+01 1.230000e+01
      vertex   -6.350000e+00 2.000000e+00 1.030000e+01
    endloop
  endfacet
  facet normal -7.071069e-01 0.000000e+00 7.071067e-01
    outer loop
      vertex   -6.350000e+00 2.000000e+00 1.030000e+01
      vertex   -4.350000e+00 2.000000e+01 1.230000e+01
      vertex   -6.350000e+00 2.000000e+01 1.030000e+01
    endloop
  endfacet
  facet normal -7.071069e-01 -0.000000e+00 -7.071067e-01
    outer loop
      vertex   -6.350000e+00 2.000000e+01 -1.030000e+01
      vertex   -4.350000e+00 2.000000e+01 -1.230000e+01
      vertex   -6.350000e+00 2.000000e+00 -1.030000e+01
    endloop
  endfacet
  facet normal -7.071069e-01 0.000000e+00 -7.071067e-01
    outer loop
      vertex   -6.350000e+00 2.000000e+00 -1.030000e+01
      vertex   -4.350000e+00 2.000000e+01 -1.230000e+01
      vertex   -4.350000e+00 0.000000e+00 -1.230000e+01
    endloop
  endfacet
endsolid
