solid ASCII
  facet normal 0.000000e+00 0.000000e+00 1.000000e+00
    outer loop
      vertex   -2.000000e+00 0.000000e+00 0.000000e+00
      vertex   1.750000e+01 0.000000e+00 0.000000e+00
      vertex   0.000000e+00 2.000000e+00 0.000000e+00
    endloop
  endfacet
  facet normal -0.000000e+00 0.000000e+00 1.000000e+00
    outer loop
      vertex   0.000000e+00 2.000000e+00 0.000000e+00
      vertex   1.750000e+01 0.000000e+00 0.000000e+00
      vertex   1.750000e+01 9.000000e+00 0.000000e+00
    endloop
  endfacet
  facet normal 0.000000e+00 0.000000e+00 1.000000e+00
    outer loop
      vertex   0.000000e+00 2.000000e+00 0.000000e+00
      vertex   1.750000e+01 9.000000e+00 0.000000e+00
      vertex   0.000000e+00 9.000000e+00 0.000000e+00
    endloop
  endfacet
  facet normal 0.000000e+00 0.000000e+00 -1.000000e+00
    outer loop
      vertex   -2.000000e+00 0.000000e+00 -1.900000e+01
      vertex   0.000000e+00 2.000000e+00 -1.900000e+01
      vertex   1.750000e+01 0.000000e+00 -1.900000e+01
    endloop
  endfacet
  facet normal 0.000000e+00 0.000000e+00 -1.000000e+00
    outer loop
      vertex   1.750000e+01 0.000000e+00 -1.900000e+01
      vertex   0.000000e+00 2.000000e+00 -1.900000e+01
      vertex   1.750000e+01 9.000000e+00 -1.900000e+01
    endloop
  endfacet
  facet normal -0.000000e+00 0.000000e+00 -1.000000e+00
    outer loop
      vertex   1.750000e+01 9.000000e+00 -1.900000e+01
      vertex   0.000000e+00 2.000000e+00 -1.900000e+01
      vertex   0.000000e+00 9.000000e+00 -1.900000e+01
    endloop
  endfacet
  facet normal 7.071068e-01 -7.071068e-01 0.000000e+00
    outer loop
      vertex   0.000000e+00 2.000000e+00 -3.155051e+01
      vertex   0.000000e+00 2.000000e+00 -1.900000e+01
      vertex   -2.000000e+00 0.000000e+00 -2.955051e+01
    endloop
  endfacet
  facet normal 7.071068e-01 -7.071068e-01 0.000000e+00
    outer loop
      vertex   -2.000000e+00 0.000000e+00 -2.955051e+01
      vertex   0.000000e+00 2.000000e+00 -1.900000e+01
      vertex   -2.000000e+00 0.000000e+00 -1.900000e+01
    endloop
  endfacet
  facet normal 1.000000e+00 -0.000000e+00 0.000000e+00
    outer loop
      vertex   1.750000e+01 0.000000e+00 0.000000e+00
      vertex   1.750000e+01 0.000000e+00 -1.900000e+01
      vertex   1.750000e+01 9.000000e+00 0.000000e+00
    endloop
  endfacet
  facet normal 1.000000e+00 0.000000e+00 0.000000e+00
    outer loop
      vertex   1.750000e+01 9.000000e+00 0.000000e+00
      vertex   1.750000e+01 0.000000e+00 -1.900000e+01
      vertex   1.750000e+01 9.000000e+00 -1.900000e+01
    endloop
  endfacet
  facet normal 1.000000e+00 -0.000000e+00 0.000000e+00
    outer loop
      vertex   0.000000e+00 2.000000e+00 -3.155051e+01
      vertex   0.000000e+00 2.224745e+00 -3.200000e+01
      vertex   0.000000e+00 9.000000e+00 -1.900000e+01
    endloop
  endfacet
  facet normal 1.000000e+00 0.000000e+00 0.000000e+00
    outer loop
      vertex   0.000000e+00 9.000000e+00 -1.900000e+01
      vertex   0.000000e+00 2.224745e+00 -3.200000e+01
      vertex   0.000000e+00 1.550000e+01 -3.200000e+01
    endloop
  endfacet
  facet normal 1.000000e+00 -0.000000e+00 0.000000e+00
    outer loop
      vertex   0.000000e+00 9.000000e+00 -1.900000e+01
      vertex   0.000000e+00 1.550000e+01 -3.200000e+01
      vertex   0.000000e+00 1.550000e+01 -1.600000e+01
    endloop
  endfacet
  facet normal 1.000000e+00 0.000000e+00 0.000000e+00
    outer loop
      vertex   0.000000e+00 1.550000e+01 -1.600000e+01
      vertex   0.000000e+00 9.000000e+00 -1.600000e+01
      vertex   0.000000e+00 9.000000e+00 -1.900000e+01
    endloop
  endfacet
  facet normal 1.000000e+00 0.000000e+00 0.000000e+00
    outer loop
      vertex   0.000000e+00 9.000000e+00 -1.900000e+01
      vertex   0.000000e+00 2.000000e+00 -1.900000e+01
      vertex   0.000000e+00 2.000000e+00 -3.155051e+01
    endloop
  endfacet
  facet normal -0.000000e+00 -1.000000e+00 -0.000000e+00
    outer loop
      vertex   -4.449490e+00 0.000000e+00 1.300000e+01
      vertex   -1.705051e+01 0.000000e+00 1.300000e+01
      vertex   -2.000000e+00 0.000000e+00 0.000000e+00
    endloop
  endfacet
  facet normal 0.000000e+00 -1.000000e+00 0.000000e+00
    outer loop
      vertex   -2.000000e+00 0.000000e+00 0.000000e+00
      vertex   -1.705051e+01 0.000000e+00 1.300000e+01
      vertex   -1.950000e+01 0.000000e+00 1.055051e+01
    endloop
  endfacet
  facet normal -0.000000e+00 -1.000000e+00 0.000000e+00
    outer loop
      vertex   -2.000000e+00 0.000000e+00 0.000000e+00
      vertex   -1.950000e+01 0.000000e+00 1.055051e+01
      vertex   -1.950000e+01 0.000000e+00 -2.955051e+01
    endloop
  endfacet
  facet normal 0.000000e+00 -1.000000e+00 -0.000000e+00
    outer loop
      vertex   -2.000000e+00 0.000000e+00 0.000000e+00
      vertex   -1.950000e+01 0.000000e+00 -2.955051e+01
      vertex   -2.000000e+00 0.000000e+00 -1.900000e+01
    endloop
  endfacet
  facet normal 0.000000e+00 -1.000000e+00 0.000000e+00
    outer loop
      vertex   -2.000000e+00 0.000000e+00 -1.900000e+01
      vertex   -1.950000e+01 0.000000e+00 -2.955051e+01
      vertex   -1.705051e+01 0.000000e+00 -3.200000e+01
    endloop
  endfacet
  facet normal 0.000000e+00 -1.000000e+00 0.000000e+00
    outer loop
      vertex   -2.000000e+00 0.000000e+00 -1.900000e+01
      vertex   -1.705051e+01 0.000000e+00 -3.200000e+01
      vertex   -4.449490e+00 0.000000e+00 -3.200000e+01
    endloop
  endfacet
  facet normal 0.000000e+00 -1.000000e+00 0.000000e+00
    outer loop
      vertex   -4.449490e+00 0.000000e+00 -3.200000e+01
      vertex   -2.000000e+00 0.000000e+00 -2.955051e+01
      vertex   -2.000000e+00 0.000000e+00 -1.900000e+01
    endloop
  endfacet
  facet normal 0.000000e+00 -1.000000e+00 0.000000e+00
    outer loop
      vertex   1.750000e+01 0.000000e+00 -1.900000e+01
      vertex   1.750000e+01 0.000000e+00 0.000000e+00
      vertex   -2.000000e+00 0.000000e+00 -1.900000e+01
    endloop
  endfacet
  facet normal 0.000000e+00 -1.000000e+00 0.000000e+00
    outer loop
      vertex   -2.000000e+00 0.000000e+00 -1.900000e+01
      vertex   1.750000e+01 0.000000e+00 0.000000e+00
      vertex   -2.000000e+00 0.000000e+00 0.000000e+00
    endloop
  endfacet
  facet normal 0.000000e+00 -1.000000e+00 0.000000e+00
    outer loop
      vertex   -2.000000e+00 0.000000e+00 0.000000e+00
      vertex   -2.000000e+00 0.000000e+00 1.055051e+01
      vertex   -4.449490e+00 0.000000e+00 1.300000e+01
    endloop
  endfacet
  facet normal -0.000000e+00 1.000000e+00 0.000000e+00
    outer loop
      vertex   -1.086454e+01 1.550000e+01 4.354258e+00
      vertex   0.000000e+00 1.550000e+01 1.300000e+01
      vertex   -1.075000e+01 1.550000e+01 3.889535e+00
    endloop
  endfacet
  facet normal -0.000000e+00 1.000000e+00 0.000000e+00
    outer loop
      vertex   -1.075000e+01 1.550000e+01 3.889535e+00
      vertex   0.000000e+00 1.550000e+01 1.300000e+01
      vertex   0.000000e+00 1.550000e+01 -3.000000e+00
    endloop
  endfacet
  facet normal 0.000000e+00 1.000000e+00 0.000000e+00
    outer loop
      vertex   -1.075000e+01 1.550000e+01 3.889535e+00
      vertex   0.000000e+00 1.550000e+01 -3.000000e+00
      vertex   -1.086454e+01 1.550000e+01 3.424812e+00
    endloop
  endfacet
  facet normal 0.000000e+00 1.000000e+00 0.000000e+00
    outer loop
      vertex   -1.086454e+01 1.550000e+01 3.424812e+00
      vertex   0.000000e+00 1.550000e+01 -3.000000e+00
      vertex   -1.118194e+01 1.550000e+01 3.066551e+00
    endloop
  endfacet
  facet normal 0.000000e+00 1.000000e+00 0.000000e+00
    outer loop
      vertex   -1.118194e+01 1.550000e+01 3.066551e+00
      vertex   0.000000e+00 1.550000e+01 -3.000000e+00
      vertex   -1.062946e+01 1.550000e+01 -2.075729e+01
    endloop
  endfacet
  facet normal 0.000000e+00 1.000000e+00 0.000000e+00
    outer loop
      vertex   -1.118194e+01 1.550000e+01 3.066551e+00
      vertex   -1.062946e+01 1.550000e+01 -2.075729e+01
      vertex   -1.162946e+01 1.550000e+01 2.896826e+00
    endloop
  endfacet
  facet normal 0.000000e+00 1.000000e+00 0.000000e+00
    outer loop
      vertex   -1.162946e+01 1.550000e+01 2.896826e+00
      vertex   -1.062946e+01 1.550000e+01 -2.075729e+01
      vertex   -1.110461e+01 1.550000e+01 -2.081498e+01
    endloop
  endfacet
  facet normal 0.000000e+00 1.000000e+00 0.000000e+00
    outer loop
      vertex   -1.162946e+01 1.550000e+01 2.896826e+00
      vertex   -1.110461e+01 1.550000e+01 -2.081498e+01
      vertex   -1.210461e+01 1.550000e+01 2.954518e+00
    endloop
  endfacet
  facet normal 0.000000e+00 1.000000e+00 0.000000e+00
    outer loop
      vertex   -1.210461e+01 1.550000e+01 2.954518e+00
      vertex   -1.110461e+01 1.550000e+01 -2.081498e+01
      vertex   -1.149851e+01 1.550000e+01 -2.108688e+01
    endloop
  endfacet
  facet normal 0.000000e+00 1.000000e+00 0.000000e+00
    outer loop
      vertex   -1.210461e+01 1.550000e+01 2.954518e+00
      vertex   -1.149851e+01 1.550000e+01 -2.108688e+01
      vertex   -1.249851e+01 1.550000e+01 3.226412e+00
    endloop
  endfacet
  facet normal 0.000000e+00 1.000000e+00 0.000000e+00
    outer loop
      vertex   -1.249851e+01 1.550000e+01 3.226412e+00
      vertex   -1.149851e+01 1.550000e+01 -2.108688e+01
      vertex   -1.172094e+01 1.550000e+01 -2.151068e+01
    endloop
  endfacet
  facet normal 0.000000e+00 1.000000e+00 0.000000e+00
    outer loop
      vertex   -1.249851e+01 1.550000e+01 3.226412e+00
      vertex   -1.172094e+01 1.550000e+01 -2.151068e+01
      vertex   -2.150000e+01 1.550000e+01 -3.200000e+01
    endloop
  endfacet
  facet normal 0.000000e+00 1.000000e+00 0.000000e+00
    outer loop
      vertex   -2.150000e+01 1.550000e+01 -3.200000e+01
      vertex   -1.172094e+01 1.550000e+01 -2.151068e+01
      vertex   -1.172094e+01 1.550000e+01 -2.198931e+01
    endloop
  endfacet
  facet normal -0.000000e+00 1.000000e+00 0.000000e+00
    outer loop
      vertex   -2.150000e+01 1.550000e+01 -3.200000e+01
      vertex   -1.172094e+01 1.550000e+01 -2.198931e+01
      vertex   -1.950000e+01 1.550000e+01 -3.400000e+01
    endloop
  endfacet
  facet normal 0.000000e+00 1.000000e+00 0.000000e+00
    outer loop
      vertex   -1.950000e+01 1.550000e+01 -3.400000e+01
      vertex   -1.172094e+01 1.550000e+01 -2.198931e+01
      vertex   -1.149851e+01 1.550000e+01 -2.241312e+01
    endloop
  endfacet
  facet normal 0.000000e+00 1.000000e+00 0.000000e+00
    outer loop
      vertex   -1.950000e+01 1.550000e+01 -3.400000e+01
      vertex   -1.149851e+01 1.550000e+01 -2.241312e+01
      vertex   -1.110461e+01 1.550000e+01 -2.268502e+01
    endloop
  endfacet
  facet normal 0.000000e+00 1.000000e+00 0.000000e+00
    outer loop
      vertex   0.000000e+00 1.550000e+01 1.300000e+01
      vertex   -1.086454e+01 1.550000e+01 4.354258e+00
      vertex   -2.000000e+00 1.550000e+01 1.500000e+01
    endloop
  endfacet
  facet normal 0.000000e+00 1.000000e+00 0.000000e+00
    outer loop
      vertex   -2.000000e+00 1.550000e+01 1.500000e+01
      vertex   -1.086454e+01 1.550000e+01 4.354258e+00
      vertex   -1.118194e+01 1.550000e+01 4.712519e+00
    endloop
  endfacet
  facet normal 0.000000e+00 1.000000e+00 0.000000e+00
    outer loop
      vertex   -2.000000e+00 1.550000e+01 1.500000e+01
      vertex   -1.118194e+01 1.550000e+01 4.712519e+00
      vertex   -1.162946e+01 1.550000e+01 4.882244e+00
    endloop
  endfacet
  facet normal 0.000000e+00 1.000000e+00 0.000000e+00
    outer loop
      vertex   -2.000000e+00 1.550000e+01 1.500000e+01
      vertex   -1.162946e+01 1.550000e+01 4.882244e+00
      vertex   -1.950000e+01 1.550000e+01 1.500000e+01
    endloop
  endfacet
  facet normal 0.000000e+00 1.000000e+00 0.000000e+00
    outer loop
      vertex   -1.950000e+01 1.550000e+01 1.500000e+01
      vertex   -1.162946e+01 1.550000e+01 4.882244e+00
      vertex   -1.210461e+01 1.550000e+01 4.824551e+00
    endloop
  endfacet
  facet normal 0.000000e+00 1.000000e+00 0.000000e+00
    outer loop
      vertex   -1.950000e+01 1.550000e+01 1.500000e+01
      vertex   -1.210461e+01 1.550000e+01 4.824551e+00
      vertex   -1.249851e+01 1.550000e+01 4.552658e+00
    endloop
  endfacet
  facet normal 0.000000e+00 1.000000e+00 0.000000e+00
    outer loop
      vertex   -1.249851e+01 1.550000e+01 4.552658e+00
      vertex   -1.272094e+01 1.550000e+01 4.128850e+00
      vertex   -1.950000e+01 1.550000e+01 1.500000e+01
    endloop
  endfacet
  facet normal 0.000000e+00 1.000000e+00 0.000000e+00
    outer loop
      vertex   -1.950000e+01 1.550000e+01 1.500000e+01
      vertex   -1.272094e+01 1.550000e+01 4.128850e+00
      vertex   -2.150000e+01 1.550000e+01 1.300000e+01
    endloop
  endfacet
  facet normal 0.000000e+00 1.000000e+00 0.000000e+00
    outer loop
      vertex   -2.150000e+01 1.550000e+01 1.300000e+01
      vertex   -1.272094e+01 1.550000e+01 4.128850e+00
      vertex   -1.272094e+01 1.550000e+01 3.650219e+00
    endloop
  endfacet
  facet normal 0.000000e+00 1.000000e+00 0.000000e+00
    outer loop
      vertex   -2.150000e+01 1.550000e+01 1.300000e+01
      vertex   -1.272094e+01 1.550000e+01 3.650219e+00
      vertex   -2.150000e+01 1.550000e+01 -3.200000e+01
    endloop
  endfacet
  facet normal 0.000000e+00 1.000000e+00 0.000000e+00
    outer loop
      vertex   -2.150000e+01 1.550000e+01 -3.200000e+01
      vertex   -1.272094e+01 1.550000e+01 3.650219e+00
      vertex   -1.249851e+01 1.550000e+01 3.226412e+00
    endloop
  endfacet
  facet normal -0.000000e+00 1.000000e+00 0.000000e+00
    outer loop
      vertex   6.135456e+00 1.550000e+01 -9.035277e+00
      vertex   1.050000e+01 1.550000e+01 -3.000000e+00
      vertex   6.250000e+00 1.550000e+01 -9.500000e+00
    endloop
  endfacet
  facet normal -0.000000e+00 1.000000e+00 0.000000e+00
    outer loop
      vertex   6.250000e+00 1.550000e+01 -9.500000e+00
      vertex   1.050000e+01 1.550000e+01 -3.000000e+00
      vertex   1.050000e+01 1.550000e+01 -1.600000e+01
    endloop
  endfacet
  facet normal 0.000000e+00 1.000000e+00 0.000000e+00
    outer loop
      vertex   6.250000e+00 1.550000e+01 -9.500000e+00
      vertex   1.050000e+01 1.550000e+01 -1.600000e+01
      vertex   6.135456e+00 1.550000e+01 -9.964723e+00
    endloop
  endfacet
  facet normal 0.000000e+00 1.000000e+00 0.000000e+00
    outer loop
      vertex   6.135456e+00 1.550000e+01 -9.964723e+00
      vertex   1.050000e+01 1.550000e+01 -1.600000e+01
      vertex   5.818065e+00 1.550000e+01 -1.032298e+01
    endloop
  endfacet
  facet normal 0.000000e+00 1.000000e+00 0.000000e+00
    outer loop
      vertex   5.818065e+00 1.550000e+01 -1.032298e+01
      vertex   1.050000e+01 1.550000e+01 -1.600000e+01
      vertex   5.370536e+00 1.550000e+01 -1.049271e+01
    endloop
  endfacet
  facet normal 0.000000e+00 1.000000e+00 0.000000e+00
    outer loop
      vertex   5.370536e+00 1.550000e+01 -1.049271e+01
      vertex   1.050000e+01 1.550000e+01 -1.600000e+01
      vertex   0.000000e+00 1.550000e+01 -1.600000e+01
    endloop
  endfacet
  facet normal 0.000000e+00 1.000000e+00 0.000000e+00
    outer loop
      vertex   5.370536e+00 1.550000e+01 -1.049271e+01
      vertex   0.000000e+00 1.550000e+01 -1.600000e+01
      vertex   4.895395e+00 1.550000e+01 -1.043502e+01
    endloop
  endfacet
  facet normal 0.000000e+00 1.000000e+00 0.000000e+00
    outer loop
      vertex   4.895395e+00 1.550000e+01 -1.043502e+01
      vertex   0.000000e+00 1.550000e+01 -1.600000e+01
      vertex   4.501489e+00 1.550000e+01 -1.016312e+01
    endloop
  endfacet
  facet normal 0.000000e+00 1.000000e+00 0.000000e+00
    outer loop
      vertex   4.501489e+00 1.550000e+01 -1.016312e+01
      vertex   0.000000e+00 1.550000e+01 -1.600000e+01
      vertex   4.279058e+00 1.550000e+01 -9.739316e+00
    endloop
  endfacet
  facet normal 0.000000e+00 1.000000e+00 0.000000e+00
    outer loop
      vertex   4.279058e+00 1.550000e+01 -9.739316e+00
      vertex   0.000000e+00 1.550000e+01 -1.600000e+01
      vertex   0.000000e+00 1.550000e+01 -3.000000e+00
    endloop
  endfacet
  facet normal 0.000000e+00 1.000000e+00 -0.000000e+00
    outer loop
      vertex   4.279058e+00 1.550000e+01 -9.739316e+00
      vertex   0.000000e+00 1.550000e+01 -3.000000e+00
      vertex   4.279058e+00 1.550000e+01 -9.260684e+00
    endloop
  endfacet
  facet normal 0.000000e+00 1.000000e+00 -0.000000e+00
    outer loop
      vertex   4.279058e+00 1.550000e+01 -9.260684e+00
      vertex   0.000000e+00 1.550000e+01 -3.000000e+00
      vertex   4.501489e+00 1.550000e+01 -8.836877e+00
    endloop
  endfacet
  facet normal 0.000000e+00 1.000000e+00 -0.000000e+00
    outer loop
      vertex   4.501489e+00 1.550000e+01 -8.836877e+00
      vertex   0.000000e+00 1.550000e+01 -3.000000e+00
      vertex   4.895395e+00 1.550000e+01 -8.564984e+00
    endloop
  endfacet
  facet normal 0.000000e+00 1.000000e+00 -0.000000e+00
    outer loop
      vertex   4.895395e+00 1.550000e+01 -8.564984e+00
      vertex   0.000000e+00 1.550000e+01 -3.000000e+00
      vertex   5.370536e+00 1.550000e+01 -8.507291e+00
    endloop
  endfacet
  facet normal 0.000000e+00 1.000000e+00 -0.000000e+00
    outer loop
      vertex   5.370536e+00 1.550000e+01 -8.507291e+00
      vertex   0.000000e+00 1.550000e+01 -3.000000e+00
      vertex   1.050000e+01 1.550000e+01 -3.000000e+00
    endloop
  endfacet
  facet normal -0.000000e+00 1.000000e+00 0.000000e+00
    outer loop
      vertex   5.370536e+00 1.550000e+01 -8.507291e+00
      vertex   1.050000e+01 1.550000e+01 -3.000000e+00
      vertex   5.818065e+00 1.550000e+01 -8.677016e+00
    endloop
  endfacet
  facet normal -0.000000e+00 1.000000e+00 0.000000e+00
    outer loop
      vertex   5.818065e+00 1.550000e+01 -8.677016e+00
      vertex   1.050000e+01 1.550000e+01 -3.000000e+00
      vertex   6.135456e+00 1.550000e+01 -9.035277e+00
    endloop
  endfacet
  facet normal -0.000000e+00 1.000000e+00 0.000000e+00
    outer loop
      vertex   -9.864544e+00 1.550000e+01 -2.128528e+01
      vertex   0.000000e+00 1.550000e+01 -1.600000e+01
      vertex   -9.750000e+00 1.550000e+01 -2.175000e+01
    endloop
  endfacet
  facet normal -0.000000e+00 1.000000e+00 0.000000e+00
    outer loop
      vertex   -9.750000e+00 1.550000e+01 -2.175000e+01
      vertex   0.000000e+00 1.550000e+01 -1.600000e+01
      vertex   0.000000e+00 1.550000e+01 -3.200000e+01
    endloop
  endfacet
  facet normal 0.000000e+00 1.000000e+00 0.000000e+00
    outer loop
      vertex   -9.750000e+00 1.550000e+01 -2.175000e+01
      vertex   0.000000e+00 1.550000e+01 -3.200000e+01
      vertex   -9.864544e+00 1.550000e+01 -2.221472e+01
    endloop
  endfacet
  facet normal 0.000000e+00 1.000000e+00 0.000000e+00
    outer loop
      vertex   -9.864544e+00 1.550000e+01 -2.221472e+01
      vertex   0.000000e+00 1.550000e+01 -3.200000e+01
      vertex   -2.000000e+00 1.550000e+01 -3.400000e+01
    endloop
  endfacet
  facet normal 0.000000e+00 1.000000e+00 0.000000e+00
    outer loop
      vertex   -9.864544e+00 1.550000e+01 -2.221472e+01
      vertex   -2.000000e+00 1.550000e+01 -3.400000e+01
      vertex   -1.018193e+01 1.550000e+01 -2.257298e+01
    endloop
  endfacet
  facet normal 0.000000e+00 1.000000e+00 0.000000e+00
    outer loop
      vertex   -1.018193e+01 1.550000e+01 -2.257298e+01
      vertex   -2.000000e+00 1.550000e+01 -3.400000e+01
      vertex   -1.062946e+01 1.550000e+01 -2.274271e+01
    endloop
  endfacet
  facet normal 0.000000e+00 1.000000e+00 0.000000e+00
    outer loop
      vertex   -1.062946e+01 1.550000e+01 -2.274271e+01
      vertex   -2.000000e+00 1.550000e+01 -3.400000e+01
      vertex   -1.950000e+01 1.550000e+01 -3.400000e+01
    endloop
  endfacet
  facet normal 0.000000e+00 1.000000e+00 0.000000e+00
    outer loop
      vertex   -1.062946e+01 1.550000e+01 -2.274271e+01
      vertex   -1.950000e+01 1.550000e+01 -3.400000e+01
      vertex   -1.110461e+01 1.550000e+01 -2.268502e+01
    endloop
  endfacet
  facet normal 0.000000e+00 1.000000e+00 -0.000000e+00
    outer loop
      vertex   -9.864544e+00 1.550000e+01 -2.128528e+01
      vertex   -1.018193e+01 1.550000e+01 -2.092702e+01
      vertex   0.000000e+00 1.550000e+01 -1.600000e+01
    endloop
  endfacet
  facet normal 0.000000e+00 1.000000e+00 -0.000000e+00
    outer loop
      vertex   0.000000e+00 1.550000e+01 -1.600000e+01
      vertex   -1.018193e+01 1.550000e+01 -2.092702e+01
      vertex   0.000000e+00 1.550000e+01 -3.000000e+00
    endloop
  endfacet
  facet normal 0.000000e+00 1.000000e+00 -0.000000e+00
    outer loop
      vertex   -1.018193e+01 1.550000e+01 -2.092702e+01
      vertex   -1.062946e+01 1.550000e+01 -2.075729e+01
      vertex   0.000000e+00 1.550000e+01 -3.000000e+00
    endloop
  endfacet
  facet normal -0.000000e+00 0.000000e+00 1.000000e+00
    outer loop
      vertex   -1.950000e+01 2.224745e+00 1.500000e+01
      vertex   -1.905051e+01 2.000000e+00 1.500000e+01
      vertex   -1.950000e+01 1.550000e+01 1.500000e+01
    endloop
  endfacet
  facet normal -0.000000e+00 0.000000e+00 1.000000e+00
    outer loop
      vertex   -1.950000e+01 1.550000e+01 1.500000e+01
      vertex   -1.905051e+01 2.000000e+00 1.500000e+01
      vertex   -2.000000e+00 1.550000e+01 1.500000e+01
    endloop
  endfacet
  facet normal 0.000000e+00 0.000000e+00 1.000000e+00
    outer loop
      vertex   -2.000000e+00 1.550000e+01 1.500000e+01
      vertex   -1.905051e+01 2.000000e+00 1.500000e+01
      vertex   -2.449490e+00 2.000000e+00 1.500000e+01
    endloop
  endfacet
  facet normal 0.000000e+00 0.000000e+00 1.000000e+00
    outer loop
      vertex   -2.000000e+00 1.550000e+01 1.500000e+01
      vertex   -2.449490e+00 2.000000e+00 1.500000e+01
      vertex   -2.000000e+00 2.224745e+00 1.500000e+01
    endloop
  endfacet
  facet normal 0.000000e+00 0.000000e+00 -1.000000e+00
    outer loop
      vertex   1.050000e+01 9.000000e+00 -1.600000e+01
      vertex   0.000000e+00 9.000000e+00 -1.600000e+01
      vertex   1.050000e+01 1.550000e+01 -1.600000e+01
    endloop
  endfacet
  facet normal -0.000000e+00 0.000000e+00 -1.000000e+00
    outer loop
      vertex   1.050000e+01 1.550000e+01 -1.600000e+01
      vertex   0.000000e+00 9.000000e+00 -1.600000e+01
      vertex   0.000000e+00 1.550000e+01 -1.600000e+01
    endloop
  endfacet
  facet normal 0.000000e+00 -7.071069e-01 7.071067e-01
    outer loop
      vertex   -1.705051e+01 0.000000e+00 1.300000e+01
      vertex   -4.449490e+00 0.000000e+00 1.300000e+01
      vertex   -1.905051e+01 2.000000e+00 1.500000e+01
    endloop
  endfacet
  facet normal 0.000000e+00 -7.071069e-01 7.071067e-01
    outer loop
      vertex   -1.905051e+01 2.000000e+00 1.500000e+01
      vertex   -4.449490e+00 0.000000e+00 1.300000e+01
      vertex   -2.449490e+00 2.000000e+00 1.500000e+01
    endloop
  endfacet
  facet normal 1.000000e+00 -0.000000e+00 0.000000e+00
    outer loop
      vertex   1.050000e+01 9.000000e+00 -3.000000e+00
      vertex   1.050000e+01 9.000000e+00 -1.600000e+01
      vertex   1.050000e+01 1.550000e+01 -3.000000e+00
    endloop
  endfacet
  facet normal 1.000000e+00 0.000000e+00 0.000000e+00
    outer loop
      vertex   1.050000e+01 1.550000e+01 -3.000000e+00
      vertex   1.050000e+01 9.000000e+00 -1.600000e+01
      vertex   1.050000e+01 1.550000e+01 -1.600000e+01
    endloop
  endfacet
  facet normal 0.000000e+00 0.000000e+00 1.000000e+00
    outer loop
      vertex   0.000000e+00 9.000000e+00 -3.000000e+00
      vertex   1.050000e+01 9.000000e+00 -3.000000e+00
      vertex   0.000000e+00 1.550000e+01 -3.000000e+00
    endloop
  endfacet
  facet normal -0.000000e+00 0.000000e+00 1.000000e+00
    outer loop
      vertex   0.000000e+00 1.550000e+01 -3.000000e+00
      vertex   1.050000e+01 9.000000e+00 -3.000000e+00
      vertex   1.050000e+01 1.550000e+01 -3.000000e+00
    endloop
  endfacet
  facet normal -7.071068e-01 0.000000e+00 7.071068e-01
    outer loop
      vertex   -1.950000e+01 1.550000e+01 1.500000e+01
      vertex   -2.150000e+01 1.550000e+01 1.300000e+01
      vertex   -1.950000e+01 2.224745e+00 1.500000e+01
    endloop
  endfacet
  facet normal -7.071068e-01 0.000000e+00 7.071068e-01
    outer loop
      vertex   -1.950000e+01 2.224745e+00 1.500000e+01
      vertex   -2.150000e+01 1.550000e+01 1.300000e+01
      vertex   -2.150000e+01 2.224745e+00 1.300000e+01
    endloop
  endfacet
  facet normal 0.000000e+00 1.000000e+00 0.000000e+00
    outer loop
      vertex   0.000000e+00 9.000000e+00 -3.000000e+00
      vertex   0.000000e+00 9.000000e+00 0.000000e+00
      vertex   1.050000e+01 9.000000e+00 -3.000000e+00
    endloop
  endfacet
  facet normal 0.000000e+00 1.000000e+00 -0.000000e+00
    outer loop
      vertex   1.050000e+01 9.000000e+00 -3.000000e+00
      vertex   0.000000e+00 9.000000e+00 0.000000e+00
      vertex   1.750000e+01 9.000000e+00 0.000000e+00
    endloop
  endfacet
  facet normal -0.000000e+00 1.000000e+00 0.000000e+00
    outer loop
      vertex   1.050000e+01 9.000000e+00 -3.000000e+00
      vertex   1.750000e+01 9.000000e+00 0.000000e+00
      vertex   1.750000e+01 9.000000e+00 -1.900000e+01
    endloop
  endfacet
  facet normal 0.000000e+00 1.000000e+00 0.000000e+00
    outer loop
      vertex   1.050000e+01 9.000000e+00 -3.000000e+00
      vertex   1.750000e+01 9.000000e+00 -1.900000e+01
      vertex   1.050000e+01 9.000000e+00 -1.600000e+01
    endloop
  endfacet
  facet normal 0.000000e+00 1.000000e+00 0.000000e+00
    outer loop
      vertex   1.050000e+01 9.000000e+00 -1.600000e+01
      vertex   1.750000e+01 9.000000e+00 -1.900000e+01
      vertex   0.000000e+00 9.000000e+00 -1.900000e+01
    endloop
  endfacet
  facet normal 0.000000e+00 1.000000e+00 0.000000e+00
    outer loop
      vertex   1.050000e+01 9.000000e+00 -1.600000e+01
      vertex   0.000000e+00 9.000000e+00 -1.900000e+01
      vertex   0.000000e+00 9.000000e+00 -1.600000e+01
    endloop
  endfacet
  facet normal -9.709421e-01 0.000000e+00 -2.393145e-01
    outer loop
      vertex   -1.086454e+01 1.250000e+01 4.354258e+00
      vertex   -1.086454e+01 1.550000e+01 4.354258e+00
      vertex   -1.075000e+01 1.250000e+01 3.889535e+00
    endloop
  endfacet
  facet normal -9.709421e-01 0.000000e+00 -2.393145e-01
    outer loop
      vertex   -1.075000e+01 1.250000e+01 3.889535e+00
      vertex   -1.086454e+01 1.550000e+01 4.354258e+00
      vertex   -1.075000e+01 1.550000e+01 3.889535e+00
    endloop
  endfacet
  facet normal -9.709421e-01 0.000000e+00 2.393146e-01
    outer loop
      vertex   -1.075000e+01 1.250000e+01 3.889535e+00
      vertex   -1.075000e+01 1.550000e+01 3.889535e+00
      vertex   -1.086454e+01 1.250000e+01 3.424812e+00
    endloop
  endfacet
  facet normal -9.709421e-01 0.000000e+00 2.393146e-01
    outer loop
      vertex   -1.086454e+01 1.250000e+01 3.424812e+00
      vertex   -1.075000e+01 1.550000e+01 3.889535e+00
      vertex   -1.086454e+01 1.550000e+01 3.424812e+00
    endloop
  endfacet
  facet normal -7.485108e-01 0.000000e+00 6.631226e-01
    outer loop
      vertex   -1.086454e+01 1.250000e+01 3.424812e+00
      vertex   -1.086454e+01 1.550000e+01 3.424812e+00
      vertex   -1.118194e+01 1.250000e+01 3.066551e+00
    endloop
  endfacet
  facet normal -7.485108e-01 0.000000e+00 6.631226e-01
    outer loop
      vertex   -1.118194e+01 1.250000e+01 3.066551e+00
      vertex   -1.086454e+01 1.550000e+01 3.424812e+00
      vertex   -1.118194e+01 1.550000e+01 3.066551e+00
    endloop
  endfacet
  facet normal -3.546049e-01 0.000000e+00 9.350162e-01
    outer loop
      vertex   -1.118194e+01 1.250000e+01 3.066551e+00
      vertex   -1.118194e+01 1.550000e+01 3.066551e+00
      vertex   -1.162946e+01 1.250000e+01 2.896826e+00
    endloop
  endfacet
  facet normal -3.546049e-01 0.000000e+00 9.350162e-01
    outer loop
      vertex   -1.162946e+01 1.250000e+01 2.896826e+00
      vertex   -1.118194e+01 1.550000e+01 3.066551e+00
      vertex   -1.162946e+01 1.550000e+01 2.896826e+00
    endloop
  endfacet
  facet normal 1.205364e-01 -0.000000e+00 9.927089e-01
    outer loop
      vertex   -1.162946e+01 1.250000e+01 2.896826e+00
      vertex   -1.162946e+01 1.550000e+01 2.896826e+00
      vertex   -1.210461e+01 1.250000e+01 2.954518e+00
    endloop
  endfacet
  facet normal 1.205364e-01 -0.000000e+00 9.927089e-01
    outer loop
      vertex   -1.210461e+01 1.250000e+01 2.954518e+00
      vertex   -1.162946e+01 1.550000e+01 2.896826e+00
      vertex   -1.210461e+01 1.550000e+01 2.954518e+00
    endloop
  endfacet
  facet normal 5.680652e-01 -0.000000e+00 8.229836e-01
    outer loop
      vertex   -1.210461e+01 1.250000e+01 2.954518e+00
      vertex   -1.210461e+01 1.550000e+01 2.954518e+00
      vertex   -1.249851e+01 1.250000e+01 3.226412e+00
    endloop
  endfacet
  facet normal 5.680652e-01 -0.000000e+00 8.229836e-01
    outer loop
      vertex   -1.249851e+01 1.250000e+01 3.226412e+00
      vertex   -1.210461e+01 1.550000e+01 2.954518e+00
      vertex   -1.249851e+01 1.550000e+01 3.226412e+00
    endloop
  endfacet
  facet normal 8.854567e-01 -0.000000e+00 4.647219e-01
    outer loop
      vertex   -1.249851e+01 1.250000e+01 3.226412e+00
      vertex   -1.249851e+01 1.550000e+01 3.226412e+00
      vertex   -1.272094e+01 1.250000e+01 3.650219e+00
    endloop
  endfacet
  facet normal 8.854567e-01 -0.000000e+00 4.647219e-01
    outer loop
      vertex   -1.272094e+01 1.250000e+01 3.650219e+00
      vertex   -1.249851e+01 1.550000e+01 3.226412e+00
      vertex   -1.272094e+01 1.550000e+01 3.650219e+00
    endloop
  endfacet
  facet normal 1.000000e+00 0.000000e+00 0.000000e+00
    outer loop
      vertex   -1.272094e+01 1.250000e+01 3.650219e+00
      vertex   -1.272094e+01 1.550000e+01 3.650219e+00
      vertex   -1.272094e+01 1.250000e+01 4.128850e+00
    endloop
  endfacet
  facet normal 1.000000e+00 -0.000000e+00 0.000000e+00
    outer loop
      vertex   -1.272094e+01 1.250000e+01 4.128850e+00
      vertex   -1.272094e+01 1.550000e+01 3.650219e+00
      vertex   -1.272094e+01 1.550000e+01 4.128850e+00
    endloop
  endfacet
  facet normal 8.854568e-01 0.000000e+00 -4.647216e-01
    outer loop
      vertex   -1.272094e+01 1.250000e+01 4.128850e+00
      vertex   -1.272094e+01 1.550000e+01 4.128850e+00
      vertex   -1.249851e+01 1.250000e+01 4.552658e+00
    endloop
  endfacet
  facet normal 8.854568e-01 0.000000e+00 -4.647216e-01
    outer loop
      vertex   -1.249851e+01 1.250000e+01 4.552658e+00
      vertex   -1.272094e+01 1.550000e+01 4.128850e+00
      vertex   -1.249851e+01 1.550000e+01 4.552658e+00
    endloop
  endfacet
  facet normal 5.680648e-01 0.000000e+00 -8.229839e-01
    outer loop
      vertex   -1.249851e+01 1.250000e+01 4.552658e+00
      vertex   -1.249851e+01 1.550000e+01 4.552658e+00
      vertex   -1.210461e+01 1.250000e+01 4.824551e+00
    endloop
  endfacet
  facet normal 5.680648e-01 0.000000e+00 -8.229839e-01
    outer loop
      vertex   -1.210461e+01 1.250000e+01 4.824551e+00
      vertex   -1.249851e+01 1.550000e+01 4.552658e+00
      vertex   -1.210461e+01 1.550000e+01 4.824551e+00
    endloop
  endfacet
  facet normal 1.205370e-01 0.000000e+00 -9.927088e-01
    outer loop
      vertex   -1.210461e+01 1.250000e+01 4.824551e+00
      vertex   -1.210461e+01 1.550000e+01 4.824551e+00
      vertex   -1.162946e+01 1.250000e+01 4.882244e+00
    endloop
  endfacet
  facet normal 1.205370e-01 0.000000e+00 -9.927088e-01
    outer loop
      vertex   -1.162946e+01 1.250000e+01 4.882244e+00
      vertex   -1.210461e+01 1.550000e+01 4.824551e+00
      vertex   -1.162946e+01 1.550000e+01 4.882244e+00
    endloop
  endfacet
  facet normal -3.546049e-01 0.000000e+00 -9.350162e-01
    outer loop
      vertex   -1.162946e+01 1.250000e+01 4.882244e+00
      vertex   -1.162946e+01 1.550000e+01 4.882244e+00
      vertex   -1.118194e+01 1.250000e+01 4.712519e+00
    endloop
  endfacet
  facet normal -3.546049e-01 0.000000e+00 -9.350162e-01
    outer loop
      vertex   -1.118194e+01 1.250000e+01 4.712519e+00
      vertex   -1.162946e+01 1.550000e+01 4.882244e+00
      vertex   -1.118194e+01 1.550000e+01 4.712519e+00
    endloop
  endfacet
  facet normal -7.485108e-01 0.000000e+00 -6.631226e-01
    outer loop
      vertex   -1.118194e+01 1.250000e+01 4.712519e+00
      vertex   -1.118194e+01 1.550000e+01 4.712519e+00
      vertex   -1.086454e+01 1.250000e+01 4.354258e+00
    endloop
  endfacet
  facet normal -7.485108e-01 0.000000e+00 -6.631226e-01
    outer loop
      vertex   -1.086454e+01 1.250000e+01 4.354258e+00
      vertex   -1.118194e+01 1.550000e+01 4.712519e+00
      vertex   -1.086454e+01 1.550000e+01 4.354258e+00
    endloop
  endfacet
  facet normal -9.709418e-01 0.000000e+00 -2.393158e-01
    outer loop
      vertex   6.135456e+00 1.250000e+01 -9.035277e+00
      vertex   6.135456e+00 1.550000e+01 -9.035277e+00
      vertex   6.250000e+00 1.250000e+01 -9.500000e+00
    endloop
  endfacet
  facet normal -9.709418e-01 0.000000e+00 -2.393158e-01
    outer loop
      vertex   6.250000e+00 1.250000e+01 -9.500000e+00
      vertex   6.135456e+00 1.550000e+01 -9.035277e+00
      vertex   6.250000e+00 1.550000e+01 -9.500000e+00
    endloop
  endfacet
  facet normal -9.709418e-01 0.000000e+00 2.393158e-01
    outer loop
      vertex   6.250000e+00 1.250000e+01 -9.500000e+00
      vertex   6.250000e+00 1.550000e+01 -9.500000e+00
      vertex   6.135456e+00 1.250000e+01 -9.964723e+00
    endloop
  endfacet
  facet normal -9.709418e-01 0.000000e+00 2.393158e-01
    outer loop
      vertex   6.135456e+00 1.250000e+01 -9.964723e+00
      vertex   6.250000e+00 1.550000e+01 -9.500000e+00
      vertex   6.135456e+00 1.550000e+01 -9.964723e+00
    endloop
  endfacet
  facet normal -7.485116e-01 0.000000e+00 6.631217e-01
    outer loop
      vertex   6.135456e+00 1.250000e+01 -9.964723e+00
      vertex   6.135456e+00 1.550000e+01 -9.964723e+00
      vertex   5.818065e+00 1.250000e+01 -1.032298e+01
    endloop
  endfacet
  facet normal -7.485116e-01 0.000000e+00 6.631217e-01
    outer loop
      vertex   5.818065e+00 1.250000e+01 -1.032298e+01
      vertex   6.135456e+00 1.550000e+01 -9.964723e+00
      vertex   5.818065e+00 1.550000e+01 -1.032298e+01
    endloop
  endfacet
  facet normal -3.546033e-01 0.000000e+00 9.350169e-01
    outer loop
      vertex   5.818065e+00 1.250000e+01 -1.032298e+01
      vertex   5.818065e+00 1.550000e+01 -1.032298e+01
      vertex   5.370536e+00 1.250000e+01 -1.049271e+01
    endloop
  endfacet
  facet normal -3.546033e-01 0.000000e+00 9.350169e-01
    outer loop
      vertex   5.370536e+00 1.250000e+01 -1.049271e+01
      vertex   5.818065e+00 1.550000e+01 -1.032298e+01
      vertex   5.370536e+00 1.550000e+01 -1.049271e+01
    endloop
  endfacet
  facet normal 1.205365e-01 -0.000000e+00 9.927089e-01
    outer loop
      vertex   5.370536e+00 1.250000e+01 -1.049271e+01
      vertex   5.370536e+00 1.550000e+01 -1.049271e+01
      vertex   4.895395e+00 1.250000e+01 -1.043502e+01
    endloop
  endfacet
  facet normal 1.205365e-01 -0.000000e+00 9.927089e-01
    outer loop
      vertex   4.895395e+00 1.250000e+01 -1.043502e+01
      vertex   5.370536e+00 1.550000e+01 -1.049271e+01
      vertex   4.895395e+00 1.550000e+01 -1.043502e+01
    endloop
  endfacet
  facet normal 5.680649e-01 -0.000000e+00 8.229838e-01
    outer loop
      vertex   4.895395e+00 1.250000e+01 -1.043502e+01
      vertex   4.895395e+00 1.550000e+01 -1.043502e+01
      vertex   4.501489e+00 1.250000e+01 -1.016312e+01
    endloop
  endfacet
  facet normal 5.680649e-01 -0.000000e+00 8.229838e-01
    outer loop
      vertex   4.501489e+00 1.250000e+01 -1.016312e+01
      vertex   4.895395e+00 1.550000e+01 -1.043502e+01
      vertex   4.501489e+00 1.550000e+01 -1.016312e+01
    endloop
  endfacet
  facet normal 8.854562e-01 -0.000000e+00 4.647228e-01
    outer loop
      vertex   4.501489e+00 1.250000e+01 -1.016312e+01
      vertex   4.501489e+00 1.550000e+01 -1.016312e+01
      vertex   4.279058e+00 1.250000e+01 -9.739316e+00
    endloop
  endfacet
  facet normal 8.854562e-01 -0.000000e+00 4.647228e-01
    outer loop
      vertex   4.279058e+00 1.250000e+01 -9.739316e+00
      vertex   4.501489e+00 1.550000e+01 -1.016312e+01
      vertex   4.279058e+00 1.550000e+01 -9.739316e+00
    endloop
  endfacet
  facet normal 1.000000e+00 0.000000e+00 0.000000e+00
    outer loop
      vertex   4.279058e+00 1.250000e+01 -9.739316e+00
      vertex   4.279058e+00 1.550000e+01 -9.739316e+00
      vertex   4.279058e+00 1.250000e+01 -9.260684e+00
    endloop
  endfacet
  facet normal 1.000000e+00 -0.000000e+00 0.000000e+00
    outer loop
      vertex   4.279058e+00 1.250000e+01 -9.260684e+00
      vertex   4.279058e+00 1.550000e+01 -9.739316e+00
      vertex   4.279058e+00 1.550000e+01 -9.260684e+00
    endloop
  endfacet
  facet normal 8.854562e-01 0.000000e+00 -4.647228e-01
    outer loop
      vertex   4.279058e+00 1.250000e+01 -9.260684e+00
      vertex   4.279058e+00 1.550000e+01 -9.260684e+00
      vertex   4.501489e+00 1.250000e+01 -8.836877e+00
    endloop
  endfacet
  facet normal 8.854562e-01 0.000000e+00 -4.647228e-01
    outer loop
      vertex   4.501489e+00 1.250000e+01 -8.836877e+00
      vertex   4.279058e+00 1.550000e+01 -9.260684e+00
      vertex   4.501489e+00 1.550000e+01 -8.836877e+00
    endloop
  endfacet
  facet normal 5.680649e-01 0.000000e+00 -8.229838e-01
    outer loop
      vertex   4.501489e+00 1.250000e+01 -8.836877e+00
      vertex   4.501489e+00 1.550000e+01 -8.836877e+00
      vertex   4.895395e+00 1.250000e+01 -8.564984e+00
    endloop
  endfacet
  facet normal 5.680649e-01 0.000000e+00 -8.229838e-01
    outer loop
      vertex   4.895395e+00 1.250000e+01 -8.564984e+00
      vertex   4.501489e+00 1.550000e+01 -8.836877e+00
      vertex   4.895395e+00 1.550000e+01 -8.564984e+00
    endloop
  endfacet
  facet normal 1.205365e-01 0.000000e+00 -9.927089e-01
    outer loop
      vertex   4.895395e+00 1.250000e+01 -8.564984e+00
      vertex   4.895395e+00 1.550000e+01 -8.564984e+00
      vertex   5.370536e+00 1.250000e+01 -8.507291e+00
    endloop
  endfacet
  facet normal 1.205365e-01 0.000000e+00 -9.927089e-01
    outer loop
      vertex   5.370536e+00 1.250000e+01 -8.507291e+00
      vertex   4.895395e+00 1.550000e+01 -8.564984e+00
      vertex   5.370536e+00 1.550000e+01 -8.507291e+00
    endloop
  endfacet
  facet normal -3.546043e-01 0.000000e+00 -9.350164e-01
    outer loop
      vertex   5.370536e+00 1.250000e+01 -8.507291e+00
      vertex   5.370536e+00 1.550000e+01 -8.507291e+00
      vertex   5.818065e+00 1.250000e+01 -8.677016e+00
    endloop
  endfacet
  facet normal -3.546043e-01 0.000000e+00 -9.350164e-01
    outer loop
      vertex   5.818065e+00 1.250000e+01 -8.677016e+00
      vertex   5.370536e+00 1.550000e+01 -8.507291e+00
      vertex   5.818065e+00 1.550000e+01 -8.677016e+00
    endloop
  endfacet
  facet normal -7.485110e-01 0.000000e+00 -6.631223e-01
    outer loop
      vertex   5.818065e+00 1.250000e+01 -8.677016e+00
      vertex   5.818065e+00 1.550000e+01 -8.677016e+00
      vertex   6.135456e+00 1.250000e+01 -9.035277e+00
    endloop
  endfacet
  facet normal -7.485110e-01 0.000000e+00 -6.631223e-01
    outer loop
      vertex   6.135456e+00 1.250000e+01 -9.035277e+00
      vertex   5.818065e+00 1.550000e+01 -8.677016e+00
      vertex   6.135456e+00 1.550000e+01 -9.035277e+00
    endloop
  endfacet
  facet normal -0.000000e+00 1.000000e+00 0.000000e+00
    outer loop
      vertex   -1.036698e+01 1.250000e+01 -2.142861e+01
      vertex   -9.864544e+00 1.250000e+01 -2.128528e+01
      vertex   -1.025000e+01 1.250000e+01 -2.175000e+01
    endloop
  endfacet
  facet normal 0.000000e+00 1.000000e+00 0.000000e+00
    outer loop
      vertex   -1.025000e+01 1.250000e+01 -2.175000e+01
      vertex   -9.864544e+00 1.250000e+01 -2.128528e+01
      vertex   -9.750000e+00 1.250000e+01 -2.175000e+01
    endloop
  endfacet
  facet normal -0.000000e+00 1.000000e+00 0.000000e+00
    outer loop
      vertex   -1.025000e+01 1.250000e+01 -2.175000e+01
      vertex   -9.750000e+00 1.250000e+01 -2.175000e+01
      vertex   -9.864544e+00 1.250000e+01 -2.221472e+01
    endloop
  endfacet
  facet normal 0.000000e+00 1.000000e+00 0.000000e+00
    outer loop
      vertex   -9.864544e+00 1.250000e+01 -2.128528e+01
      vertex   -1.036698e+01 1.250000e+01 -2.142861e+01
      vertex   -1.018193e+01 1.250000e+01 -2.092702e+01
    endloop
  endfacet
  facet normal 0.000000e+00 1.000000e+00 0.000000e+00
    outer loop
      vertex   -1.018193e+01 1.250000e+01 -2.092702e+01
      vertex   -1.036698e+01 1.250000e+01 -2.142861e+01
      vertex   -1.066318e+01 1.250000e+01 -2.125760e+01
    endloop
  endfacet
  facet normal 0.000000e+00 1.000000e+00 0.000000e+00
    outer loop
      vertex   -1.018193e+01 1.250000e+01 -2.092702e+01
      vertex   -1.066318e+01 1.250000e+01 -2.125760e+01
      vertex   -1.062946e+01 1.250000e+01 -2.075729e+01
    endloop
  endfacet
  facet normal 0.000000e+00 1.000000e+00 0.000000e+00
    outer loop
      vertex   -1.062946e+01 1.250000e+01 -2.075729e+01
      vertex   -1.066318e+01 1.250000e+01 -2.125760e+01
      vertex   -1.110461e+01 1.250000e+01 -2.081498e+01
    endloop
  endfacet
  facet normal 0.000000e+00 1.000000e+00 0.000000e+00
    outer loop
      vertex   -1.110461e+01 1.250000e+01 -2.081498e+01
      vertex   -1.066318e+01 1.250000e+01 -2.125760e+01
      vertex   -1.100000e+01 1.250000e+01 -2.131699e+01
    endloop
  endfacet
  facet normal 0.000000e+00 1.000000e+00 0.000000e+00
    outer loop
      vertex   -1.110461e+01 1.250000e+01 -2.081498e+01
      vertex   -1.100000e+01 1.250000e+01 -2.131699e+01
      vertex   -1.149851e+01 1.250000e+01 -2.108688e+01
    endloop
  endfacet
  facet normal 0.000000e+00 1.000000e+00 0.000000e+00
    outer loop
      vertex   -1.149851e+01 1.250000e+01 -2.108688e+01
      vertex   -1.100000e+01 1.250000e+01 -2.131699e+01
      vertex   -1.121985e+01 1.250000e+01 -2.157899e+01
    endloop
  endfacet
  facet normal 0.000000e+00 1.000000e+00 0.000000e+00
    outer loop
      vertex   -1.149851e+01 1.250000e+01 -2.108688e+01
      vertex   -1.121985e+01 1.250000e+01 -2.157899e+01
      vertex   -1.172094e+01 1.250000e+01 -2.151068e+01
    endloop
  endfacet
  facet normal 0.000000e+00 1.000000e+00 0.000000e+00
    outer loop
      vertex   -1.172094e+01 1.250000e+01 -2.151068e+01
      vertex   -1.121985e+01 1.250000e+01 -2.157899e+01
      vertex   -1.121985e+01 1.250000e+01 -2.192101e+01
    endloop
  endfacet
  facet normal 0.000000e+00 1.000000e+00 0.000000e+00
    outer loop
      vertex   -1.172094e+01 1.250000e+01 -2.151068e+01
      vertex   -1.121985e+01 1.250000e+01 -2.192101e+01
      vertex   -1.172094e+01 1.250000e+01 -2.198931e+01
    endloop
  endfacet
  facet normal -0.000000e+00 1.000000e+00 0.000000e+00
    outer loop
      vertex   -1.172094e+01 1.250000e+01 -2.198931e+01
      vertex   -1.121985e+01 1.250000e+01 -2.192101e+01
      vertex   -1.149851e+01 1.250000e+01 -2.241312e+01
    endloop
  endfacet
  facet normal 0.000000e+00 1.000000e+00 0.000000e+00
    outer loop
      vertex   -1.149851e+01 1.250000e+01 -2.241312e+01
      vertex   -1.121985e+01 1.250000e+01 -2.192101e+01
      vertex   -1.100000e+01 1.250000e+01 -2.218301e+01
    endloop
  endfacet
  facet normal -0.000000e+00 1.000000e+00 0.000000e+00
    outer loop
      vertex   -1.149851e+01 1.250000e+01 -2.241312e+01
      vertex   -1.100000e+01 1.250000e+01 -2.218301e+01
      vertex   -1.110461e+01 1.250000e+01 -2.268502e+01
    endloop
  endfacet
  facet normal 0.000000e+00 1.000000e+00 0.000000e+00
    outer loop
      vertex   -1.110461e+01 1.250000e+01 -2.268502e+01
      vertex   -1.100000e+01 1.250000e+01 -2.218301e+01
      vertex   -1.066318e+01 1.250000e+01 -2.224240e+01
    endloop
  endfacet
  facet normal -0.000000e+00 1.000000e+00 0.000000e+00
    outer loop
      vertex   -1.110461e+01 1.250000e+01 -2.268502e+01
      vertex   -1.066318e+01 1.250000e+01 -2.224240e+01
      vertex   -1.062946e+01 1.250000e+01 -2.274271e+01
    endloop
  endfacet
  facet normal 0.000000e+00 1.000000e+00 -0.000000e+00
    outer loop
      vertex   -1.062946e+01 1.250000e+01 -2.274271e+01
      vertex   -1.066318e+01 1.250000e+01 -2.224240e+01
      vertex   -1.018193e+01 1.250000e+01 -2.257298e+01
    endloop
  endfacet
  facet normal 0.000000e+00 1.000000e+00 0.000000e+00
    outer loop
      vertex   -1.018193e+01 1.250000e+01 -2.257298e+01
      vertex   -1.066318e+01 1.250000e+01 -2.224240e+01
      vertex   -1.036698e+01 1.250000e+01 -2.207139e+01
    endloop
  endfacet
  facet normal 0.000000e+00 1.000000e+00 -0.000000e+00
    outer loop
      vertex   -1.018193e+01 1.250000e+01 -2.257298e+01
      vertex   -1.036698e+01 1.250000e+01 -2.207139e+01
      vertex   -9.864544e+00 1.250000e+01 -2.221472e+01
    endloop
  endfacet
  facet normal 0.000000e+00 1.000000e+00 0.000000e+00
    outer loop
      vertex   -9.864544e+00 1.250000e+01 -2.221472e+01
      vertex   -1.036698e+01 1.250000e+01 -2.207139e+01
      vertex   -1.025000e+01 1.250000e+01 -2.175000e+01
    endloop
  endfacet
  facet normal -9.709421e-01 0.000000e+00 -2.393146e-01
    outer loop
      vertex   -9.864544e+00 1.250000e+01 -2.128528e+01
      vertex   -9.864544e+00 1.550000e+01 -2.128528e+01
      vertex   -9.750000e+00 1.250000e+01 -2.175000e+01
    endloop
  endfacet
  facet normal -9.709421e-01 0.000000e+00 -2.393146e-01
    outer loop
      vertex   -9.750000e+00 1.250000e+01 -2.175000e+01
      vertex   -9.864544e+00 1.550000e+01 -2.128528e+01
      vertex   -9.750000e+00 1.550000e+01 -2.175000e+01
    endloop
  endfacet
  facet normal -9.709421e-01 0.000000e+00 2.393146e-01
    outer loop
      vertex   -9.750000e+00 1.250000e+01 -2.175000e+01
      vertex   -9.750000e+00 1.550000e+01 -2.175000e+01
      vertex   -9.864544e+00 1.250000e+01 -2.221472e+01
    endloop
  endfacet
  facet normal -9.709421e-01 0.000000e+00 2.393146e-01
    outer loop
      vertex   -9.864544e+00 1.250000e+01 -2.221472e+01
      vertex   -9.750000e+00 1.550000e+01 -2.175000e+01
      vertex   -9.864544e+00 1.550000e+01 -2.221472e+01
    endloop
  endfacet
  facet normal -7.485121e-01 0.000000e+00 6.631211e-01
    outer loop
      vertex   -9.864544e+00 1.250000e+01 -2.221472e+01
      vertex   -9.864544e+00 1.550000e+01 -2.221472e+01
      vertex   -1.018193e+01 1.250000e+01 -2.257298e+01
    endloop
  endfacet
  facet normal -7.485121e-01 0.000000e+00 6.631211e-01
    outer loop
      vertex   -1.018193e+01 1.250000e+01 -2.257298e+01
      vertex   -9.864544e+00 1.550000e+01 -2.221472e+01
      vertex   -1.018193e+01 1.550000e+01 -2.257298e+01
    endloop
  endfacet
  facet normal -3.546011e-01 0.000000e+00 9.350177e-01
    outer loop
      vertex   -1.018193e+01 1.250000e+01 -2.257298e+01
      vertex   -1.018193e+01 1.550000e+01 -2.257298e+01
      vertex   -1.062946e+01 1.250000e+01 -2.274271e+01
    endloop
  endfacet
  facet normal -3.546011e-01 0.000000e+00 9.350177e-01
    outer loop
      vertex   -1.062946e+01 1.250000e+01 -2.274271e+01
      vertex   -1.018193e+01 1.550000e+01 -2.257298e+01
      vertex   -1.062946e+01 1.550000e+01 -2.274271e+01
    endloop
  endfacet
  facet normal 1.205364e-01 -0.000000e+00 9.927089e-01
    outer loop
      vertex   -1.062946e+01 1.250000e+01 -2.274271e+01
      vertex   -1.062946e+01 1.550000e+01 -2.274271e+01
      vertex   -1.110461e+01 1.250000e+01 -2.268502e+01
    endloop
  endfacet
  facet normal 1.205364e-01 -0.000000e+00 9.927089e-01
    outer loop
      vertex   -1.110461e+01 1.250000e+01 -2.268502e+01
      vertex   -1.062946e+01 1.550000e+01 -2.274271e+01
      vertex   -1.110461e+01 1.550000e+01 -2.268502e+01
    endloop
  endfacet
  facet normal 5.680635e-01 -0.000000e+00 8.229847e-01
    outer loop
      vertex   -1.110461e+01 1.250000e+01 -2.268502e+01
      vertex   -1.110461e+01 1.550000e+01 -2.268502e+01
      vertex   -1.149851e+01 1.250000e+01 -2.241312e+01
    endloop
  endfacet
  facet normal 5.680635e-01 -0.000000e+00 8.229847e-01
    outer loop
      vertex   -1.149851e+01 1.250000e+01 -2.241312e+01
      vertex   -1.110461e+01 1.550000e+01 -2.268502e+01
      vertex   -1.149851e+01 1.550000e+01 -2.241312e+01
    endloop
  endfacet
  facet normal 8.854562e-01 -0.000000e+00 4.647228e-01
    outer loop
      vertex   -1.149851e+01 1.250000e+01 -2.241312e+01
      vertex   -1.149851e+01 1.550000e+01 -2.241312e+01
      vertex   -1.172094e+01 1.250000e+01 -2.198931e+01
    endloop
  endfacet
  facet normal 8.854562e-01 -0.000000e+00 4.647228e-01
    outer loop
      vertex   -1.172094e+01 1.250000e+01 -2.198931e+01
      vertex   -1.149851e+01 1.550000e+01 -2.241312e+01
      vertex   -1.172094e+01 1.550000e+01 -2.198931e+01
    endloop
  endfacet
  facet normal 1.000000e+00 0.000000e+00 0.000000e+00
    outer loop
      vertex   -1.172094e+01 1.250000e+01 -2.198931e+01
      vertex   -1.172094e+01 1.550000e+01 -2.198931e+01
      vertex   -1.172094e+01 1.250000e+01 -2.151068e+01
    endloop
  endfacet
  facet normal 1.000000e+00 -0.000000e+00 0.000000e+00
    outer loop
      vertex   -1.172094e+01 1.250000e+01 -2.151068e+01
      vertex   -1.172094e+01 1.550000e+01 -2.198931e+01
      vertex   -1.172094e+01 1.550000e+01 -2.151068e+01
    endloop
  endfacet
  facet normal 8.854562e-01 0.000000e+00 -4.647228e-01
    outer loop
      vertex   -1.172094e+01 1.250000e+01 -2.151068e+01
      vertex   -1.172094e+01 1.550000e+01 -2.151068e+01
      vertex   -1.149851e+01 1.250000e+01 -2.108688e+01
    endloop
  endfacet
  facet normal 8.854562e-01 0.000000e+00 -4.647228e-01
    outer loop
      vertex   -1.149851e+01 1.250000e+01 -2.108688e+01
      vertex   -1.172094e+01 1.550000e+01 -2.151068e+01
      vertex   -1.149851e+01 1.550000e+01 -2.108688e+01
    endloop
  endfacet
  facet normal 5.680635e-01 0.000000e+00 -8.229847e-01
    outer loop
      vertex   -1.149851e+01 1.250000e+01 -2.108688e+01
      vertex   -1.149851e+01 1.550000e+01 -2.108688e+01
      vertex   -1.110461e+01 1.250000e+01 -2.081498e+01
    endloop
  endfacet
  facet normal 5.680635e-01 0.000000e+00 -8.229847e-01
    outer loop
      vertex   -1.110461e+01 1.250000e+01 -2.081498e+01
      vertex   -1.149851e+01 1.550000e+01 -2.108688e+01
      vertex   -1.110461e+01 1.550000e+01 -2.081498e+01
    endloop
  endfacet
  facet normal 1.205364e-01 0.000000e+00 -9.927089e-01
    outer loop
      vertex   -1.110461e+01 1.250000e+01 -2.081498e+01
      vertex   -1.110461e+01 1.550000e+01 -2.081498e+01
      vertex   -1.062946e+01 1.250000e+01 -2.075729e+01
    endloop
  endfacet
  facet normal 1.205364e-01 0.000000e+00 -9.927089e-01
    outer loop
      vertex   -1.062946e+01 1.250000e+01 -2.075729e+01
      vertex   -1.110461e+01 1.550000e+01 -2.081498e+01
      vertex   -1.062946e+01 1.550000e+01 -2.075729e+01
    endloop
  endfacet
  facet normal -3.546054e-01 0.000000e+00 -9.350160e-01
    outer loop
      vertex   -1.062946e+01 1.250000e+01 -2.075729e+01
      vertex   -1.062946e+01 1.550000e+01 -2.075729e+01
      vertex   -1.018193e+01 1.250000e+01 -2.092702e+01
    endloop
  endfacet
  facet normal -3.546054e-01 0.000000e+00 -9.350160e-01
    outer loop
      vertex   -1.018193e+01 1.250000e+01 -2.092702e+01
      vertex   -1.062946e+01 1.550000e+01 -2.075729e+01
      vertex   -1.018193e+01 1.550000e+01 -2.092702e+01
    endloop
  endfacet
  facet normal -7.485099e-01 0.000000e+00 -6.631236e-01
    outer loop
      vertex   -1.018193e+01 1.250000e+01 -2.092702e+01
      vertex   -1.018193e+01 1.550000e+01 -2.092702e+01
      vertex   -9.864544e+00 1.250000e+01 -2.128528e+01
    endloop
  endfacet
  facet normal -7.485099e-01 0.000000e+00 -6.631236e-01
    outer loop
      vertex   -9.864544e+00 1.250000e+01 -2.128528e+01
      vertex   -1.018193e+01 1.550000e+01 -2.092702e+01
      vertex   -9.864544e+00 1.550000e+01 -2.128528e+01
    endloop
  endfacet
  facet normal -0.000000e+00 1.000000e+00 0.000000e+00
    outer loop
      vertex   5.633022e+00 1.250000e+01 -9.178606e+00
      vertex   6.135456e+00 1.250000e+01 -9.035277e+00
      vertex   5.750000e+00 1.250000e+01 -9.500000e+00
    endloop
  endfacet
  facet normal 0.000000e+00 1.000000e+00 0.000000e+00
    outer loop
      vertex   5.750000e+00 1.250000e+01 -9.500000e+00
      vertex   6.135456e+00 1.250000e+01 -9.035277e+00
      vertex   6.250000e+00 1.250000e+01 -9.500000e+00
    endloop
  endfacet
  facet normal -0.000000e+00 1.000000e+00 0.000000e+00
    outer loop
      vertex   5.750000e+00 1.250000e+01 -9.500000e+00
      vertex   6.250000e+00 1.250000e+01 -9.500000e+00
      vertex   6.135456e+00 1.250000e+01 -9.964723e+00
    endloop
  endfacet
  facet normal 0.000000e+00 1.000000e+00 0.000000e+00
    outer loop
      vertex   6.135456e+00 1.250000e+01 -9.035277e+00
      vertex   5.633022e+00 1.250000e+01 -9.178606e+00
      vertex   5.818065e+00 1.250000e+01 -8.677016e+00
    endloop
  endfacet
  facet normal 0.000000e+00 1.000000e+00 0.000000e+00
    outer loop
      vertex   5.818065e+00 1.250000e+01 -8.677016e+00
      vertex   5.633022e+00 1.250000e+01 -9.178606e+00
      vertex   5.336824e+00 1.250000e+01 -9.007596e+00
    endloop
  endfacet
  facet normal 0.000000e+00 1.000000e+00 0.000000e+00
    outer loop
      vertex   5.818065e+00 1.250000e+01 -8.677016e+00
      vertex   5.336824e+00 1.250000e+01 -9.007596e+00
      vertex   5.370536e+00 1.250000e+01 -8.507291e+00
    endloop
  endfacet
  facet normal 0.000000e+00 1.000000e+00 0.000000e+00
    outer loop
      vertex   5.370536e+00 1.250000e+01 -8.507291e+00
      vertex   5.336824e+00 1.250000e+01 -9.007596e+00
      vertex   4.895395e+00 1.250000e+01 -8.564984e+00
    endloop
  endfacet
  facet normal 0.000000e+00 1.000000e+00 0.000000e+00
    outer loop
      vertex   4.895395e+00 1.250000e+01 -8.564984e+00
      vertex   5.336824e+00 1.250000e+01 -9.007596e+00
      vertex   5.000000e+00 1.250000e+01 -9.066987e+00
    endloop
  endfacet
  facet normal 0.000000e+00 1.000000e+00 0.000000e+00
    outer loop
      vertex   4.895395e+00 1.250000e+01 -8.564984e+00
      vertex   5.000000e+00 1.250000e+01 -9.066987e+00
      vertex   4.501489e+00 1.250000e+01 -8.836877e+00
    endloop
  endfacet
  facet normal 0.000000e+00 1.000000e+00 0.000000e+00
    outer loop
      vertex   4.501489e+00 1.250000e+01 -8.836877e+00
      vertex   5.000000e+00 1.250000e+01 -9.066987e+00
      vertex   4.780154e+00 1.250000e+01 -9.328990e+00
    endloop
  endfacet
  facet normal 0.000000e+00 1.000000e+00 0.000000e+00
    outer loop
      vertex   4.501489e+00 1.250000e+01 -8.836877e+00
      vertex   4.780154e+00 1.250000e+01 -9.328990e+00
      vertex   4.279058e+00 1.250000e+01 -9.260684e+00
    endloop
  endfacet
  facet normal 0.000000e+00 1.000000e+00 0.000000e+00
    outer loop
      vertex   4.279058e+00 1.250000e+01 -9.260684e+00
      vertex   4.780154e+00 1.250000e+01 -9.328990e+00
      vertex   4.780154e+00 1.250000e+01 -9.671010e+00
    endloop
  endfacet
  facet normal 0.000000e+00 1.000000e+00 0.000000e+00
    outer loop
      vertex   4.279058e+00 1.250000e+01 -9.260684e+00
      vertex   4.780154e+00 1.250000e+01 -9.671010e+00
      vertex   4.279058e+00 1.250000e+01 -9.739316e+00
    endloop
  endfacet
  facet normal -0.000000e+00 1.000000e+00 0.000000e+00
    outer loop
      vertex   4.279058e+00 1.250000e+01 -9.739316e+00
      vertex   4.780154e+00 1.250000e+01 -9.671010e+00
      vertex   4.501489e+00 1.250000e+01 -1.016312e+01
    endloop
  endfacet
  facet normal 0.000000e+00 1.000000e+00 0.000000e+00
    outer loop
      vertex   4.501489e+00 1.250000e+01 -1.016312e+01
      vertex   4.780154e+00 1.250000e+01 -9.671010e+00
      vertex   5.000000e+00 1.250000e+01 -9.933013e+00
    endloop
  endfacet
  facet normal -0.000000e+00 1.000000e+00 0.000000e+00
    outer loop
      vertex   4.501489e+00 1.250000e+01 -1.016312e+01
      vertex   5.000000e+00 1.250000e+01 -9.933013e+00
      vertex   4.895395e+00 1.250000e+01 -1.043502e+01
    endloop
  endfacet
  facet normal 0.000000e+00 1.000000e+00 0.000000e+00
    outer loop
      vertex   4.895395e+00 1.250000e+01 -1.043502e+01
      vertex   5.000000e+00 1.250000e+01 -9.933013e+00
      vertex   5.336824e+00 1.250000e+01 -9.992404e+00
    endloop
  endfacet
  facet normal -0.000000e+00 1.000000e+00 0.000000e+00
    outer loop
      vertex   4.895395e+00 1.250000e+01 -1.043502e+01
      vertex   5.336824e+00 1.250000e+01 -9.992404e+00
      vertex   5.370536e+00 1.250000e+01 -1.049271e+01
    endloop
  endfacet
  facet normal 0.000000e+00 1.000000e+00 -0.000000e+00
    outer loop
      vertex   5.370536e+00 1.250000e+01 -1.049271e+01
      vertex   5.336824e+00 1.250000e+01 -9.992404e+00
      vertex   5.818065e+00 1.250000e+01 -1.032298e+01
    endloop
  endfacet
  facet normal 0.000000e+00 1.000000e+00 0.000000e+00
    outer loop
      vertex   5.818065e+00 1.250000e+01 -1.032298e+01
      vertex   5.336824e+00 1.250000e+01 -9.992404e+00
      vertex   5.633022e+00 1.250000e+01 -9.821394e+00
    endloop
  endfacet
  facet normal 0.000000e+00 1.000000e+00 -0.000000e+00
    outer loop
      vertex   5.818065e+00 1.250000e+01 -1.032298e+01
      vertex   5.633022e+00 1.250000e+01 -9.821394e+00
      vertex   6.135456e+00 1.250000e+01 -9.964723e+00
    endloop
  endfacet
  facet normal 0.000000e+00 1.000000e+00 0.000000e+00
    outer loop
      vertex   6.135456e+00 1.250000e+01 -9.964723e+00
      vertex   5.633022e+00 1.250000e+01 -9.821394e+00
      vertex   5.750000e+00 1.250000e+01 -9.500000e+00
    endloop
  endfacet
  facet normal -0.000000e+00 1.000000e+00 0.000000e+00
    outer loop
      vertex   -1.136698e+01 1.250000e+01 4.210929e+00
      vertex   -1.086454e+01 1.250000e+01 4.354258e+00
      vertex   -1.125000e+01 1.250000e+01 3.889535e+00
    endloop
  endfacet
  facet normal 0.000000e+00 1.000000e+00 0.000000e+00
    outer loop
      vertex   -1.125000e+01 1.250000e+01 3.889535e+00
      vertex   -1.086454e+01 1.250000e+01 4.354258e+00
      vertex   -1.075000e+01 1.250000e+01 3.889535e+00
    endloop
  endfacet
  facet normal -0.000000e+00 1.000000e+00 0.000000e+00
    outer loop
      vertex   -1.125000e+01 1.250000e+01 3.889535e+00
      vertex   -1.075000e+01 1.250000e+01 3.889535e+00
      vertex   -1.086454e+01 1.250000e+01 3.424812e+00
    endloop
  endfacet
  facet normal 0.000000e+00 1.000000e+00 0.000000e+00
    outer loop
      vertex   -1.086454e+01 1.250000e+01 4.354258e+00
      vertex   -1.136698e+01 1.250000e+01 4.210929e+00
      vertex   -1.118194e+01 1.250000e+01 4.712519e+00
    endloop
  endfacet
  facet normal 0.000000e+00 1.000000e+00 0.000000e+00
    outer loop
      vertex   -1.118194e+01 1.250000e+01 4.712519e+00
      vertex   -1.136698e+01 1.250000e+01 4.210929e+00
      vertex   -1.166318e+01 1.250000e+01 4.381939e+00
    endloop
  endfacet
  facet normal 0.000000e+00 1.000000e+00 0.000000e+00
    outer loop
      vertex   -1.118194e+01 1.250000e+01 4.712519e+00
      vertex   -1.166318e+01 1.250000e+01 4.381939e+00
      vertex   -1.162946e+01 1.250000e+01 4.882244e+00
    endloop
  endfacet
  facet normal 0.000000e+00 1.000000e+00 0.000000e+00
    outer loop
      vertex   -1.162946e+01 1.250000e+01 4.882244e+00
      vertex   -1.166318e+01 1.250000e+01 4.381939e+00
      vertex   -1.210461e+01 1.250000e+01 4.824551e+00
    endloop
  endfacet
  facet normal 0.000000e+00 1.000000e+00 0.000000e+00
    outer loop
      vertex   -1.210461e+01 1.250000e+01 4.824551e+00
      vertex   -1.166318e+01 1.250000e+01 4.381939e+00
      vertex   -1.200000e+01 1.250000e+01 4.322548e+00
    endloop
  endfacet
  facet normal 0.000000e+00 1.000000e+00 0.000000e+00
    outer loop
      vertex   -1.210461e+01 1.250000e+01 4.824551e+00
      vertex   -1.200000e+01 1.250000e+01 4.322548e+00
      vertex   -1.249851e+01 1.250000e+01 4.552658e+00
    endloop
  endfacet
  facet normal 0.000000e+00 1.000000e+00 0.000000e+00
    outer loop
      vertex   -1.249851e+01 1.250000e+01 4.552658e+00
      vertex   -1.200000e+01 1.250000e+01 4.322548e+00
      vertex   -1.221985e+01 1.250000e+01 4.060545e+00
    endloop
  endfacet
  facet normal 0.000000e+00 1.000000e+00 0.000000e+00
    outer loop
      vertex   -1.249851e+01 1.250000e+01 4.552658e+00
      vertex   -1.221985e+01 1.250000e+01 4.060545e+00
      vertex   -1.272094e+01 1.250000e+01 4.128850e+00
    endloop
  endfacet
  facet normal 0.000000e+00 1.000000e+00 0.000000e+00
    outer loop
      vertex   -1.272094e+01 1.250000e+01 4.128850e+00
      vertex   -1.221985e+01 1.250000e+01 4.060545e+00
      vertex   -1.221985e+01 1.250000e+01 3.718525e+00
    endloop
  endfacet
  facet normal 0.000000e+00 1.000000e+00 0.000000e+00
    outer loop
      vertex   -1.272094e+01 1.250000e+01 4.128850e+00
      vertex   -1.221985e+01 1.250000e+01 3.718525e+00
      vertex   -1.272094e+01 1.250000e+01 3.650219e+00
    endloop
  endfacet
  facet normal -0.000000e+00 1.000000e+00 0.000000e+00
    outer loop
      vertex   -1.272094e+01 1.250000e+01 3.650219e+00
      vertex   -1.221985e+01 1.250000e+01 3.718525e+00
      vertex   -1.249851e+01 1.250000e+01 3.226412e+00
    endloop
  endfacet
  facet normal 0.000000e+00 1.000000e+00 0.000000e+00
    outer loop
      vertex   -1.249851e+01 1.250000e+01 3.226412e+00
      vertex   -1.221985e+01 1.250000e+01 3.718525e+00
      vertex   -1.200000e+01 1.250000e+01 3.456522e+00
    endloop
  endfacet
  facet normal -0.000000e+00 1.000000e+00 0.000000e+00
    outer loop
      vertex   -1.249851e+01 1.250000e+01 3.226412e+00
      vertex   -1.200000e+01 1.250000e+01 3.456522e+00
      vertex   -1.210461e+01 1.250000e+01 2.954518e+00
    endloop
  endfacet
  facet normal 0.000000e+00 1.000000e+00 0.000000e+00
    outer loop
      vertex   -1.210461e+01 1.250000e+01 2.954518e+00
      vertex   -1.200000e+01 1.250000e+01 3.456522e+00
      vertex   -1.166318e+01 1.250000e+01 3.397131e+00
    endloop
  endfacet
  facet normal -0.000000e+00 1.000000e+00 0.000000e+00
    outer loop
      vertex   -1.210461e+01 1.250000e+01 2.954518e+00
      vertex   -1.166318e+01 1.250000e+01 3.397131e+00
      vertex   -1.162946e+01 1.250000e+01 2.896826e+00
    endloop
  endfacet
  facet normal 0.000000e+00 1.000000e+00 -0.000000e+00
    outer loop
      vertex   -1.162946e+01 1.250000e+01 2.896826e+00
      vertex   -1.166318e+01 1.250000e+01 3.397131e+00
      vertex   -1.118194e+01 1.250000e+01 3.066551e+00
    endloop
  endfacet
  facet normal 0.000000e+00 1.000000e+00 0.000000e+00
    outer loop
      vertex   -1.118194e+01 1.250000e+01 3.066551e+00
      vertex   -1.166318e+01 1.250000e+01 3.397131e+00
      vertex   -1.136698e+01 1.250000e+01 3.568141e+00
    endloop
  endfacet
  facet normal 0.000000e+00 1.000000e+00 -0.000000e+00
    outer loop
      vertex   -1.118194e+01 1.250000e+01 3.066551e+00
      vertex   -1.136698e+01 1.250000e+01 3.568141e+00
      vertex   -1.086454e+01 1.250000e+01 3.424812e+00
    endloop
  endfacet
  facet normal 0.000000e+00 1.000000e+00 0.000000e+00
    outer loop
      vertex   -1.086454e+01 1.250000e+01 3.424812e+00
      vertex   -1.136698e+01 1.250000e+01 3.568141e+00
      vertex   -1.125000e+01 1.250000e+01 3.889535e+00
    endloop
  endfacet
  facet normal -9.396924e-01 0.000000e+00 -3.420207e-01
    outer loop
      vertex   -1.036698e+01 9.500000e+00 -2.142861e+01
      vertex   -1.036698e+01 1.250000e+01 -2.142861e+01
      vertex   -1.025000e+01 9.500000e+00 -2.175000e+01
    endloop
  endfacet
  facet normal -9.396924e-01 0.000000e+00 -3.420207e-01
    outer loop
      vertex   -1.025000e+01 9.500000e+00 -2.175000e+01
      vertex   -1.036698e+01 1.250000e+01 -2.142861e+01
      vertex   -1.025000e+01 1.250000e+01 -2.175000e+01
    endloop
  endfacet
  facet normal -9.396932e-01 0.000000e+00 3.420184e-01
    outer loop
      vertex   -1.025000e+01 9.500000e+00 -2.175000e+01
      vertex   -1.025000e+01 1.250000e+01 -2.175000e+01
      vertex   -1.036698e+01 9.500000e+00 -2.207139e+01
    endloop
  endfacet
  facet normal -9.396932e-01 0.000000e+00 3.420184e-01
    outer loop
      vertex   -1.036698e+01 9.500000e+00 -2.207139e+01
      vertex   -1.025000e+01 1.250000e+01 -2.175000e+01
      vertex   -1.036698e+01 1.250000e+01 -2.207139e+01
    endloop
  endfacet
  facet normal -4.999957e-01 0.000000e+00 8.660279e-01
    outer loop
      vertex   -1.036698e+01 9.500000e+00 -2.207139e+01
      vertex   -1.036698e+01 1.250000e+01 -2.207139e+01
      vertex   -1.066318e+01 9.500000e+00 -2.224240e+01
    endloop
  endfacet
  facet normal -4.999957e-01 0.000000e+00 8.660279e-01
    outer loop
      vertex   -1.066318e+01 9.500000e+00 -2.224240e+01
      vertex   -1.036698e+01 1.250000e+01 -2.207139e+01
      vertex   -1.066318e+01 1.250000e+01 -2.224240e+01
    endloop
  endfacet
  facet normal 1.736448e-01 -0.000000e+00 9.848084e-01
    outer loop
      vertex   -1.066318e+01 9.500000e+00 -2.224240e+01
      vertex   -1.066318e+01 1.250000e+01 -2.224240e+01
      vertex   -1.100000e+01 9.500000e+00 -2.218301e+01
    endloop
  endfacet
  facet normal 1.736448e-01 -0.000000e+00 9.848084e-01
    outer loop
      vertex   -1.100000e+01 9.500000e+00 -2.218301e+01
      vertex   -1.066318e+01 1.250000e+01 -2.224240e+01
      vertex   -1.100000e+01 1.250000e+01 -2.218301e+01
    endloop
  endfacet
  facet normal 7.660456e-01 -0.000000e+00 6.427862e-01
    outer loop
      vertex   -1.100000e+01 9.500000e+00 -2.218301e+01
      vertex   -1.100000e+01 1.250000e+01 -2.218301e+01
      vertex   -1.121985e+01 9.500000e+00 -2.192101e+01
    endloop
  endfacet
  facet normal 7.660456e-01 -0.000000e+00 6.427862e-01
    outer loop
      vertex   -1.121985e+01 9.500000e+00 -2.192101e+01
      vertex   -1.100000e+01 1.250000e+01 -2.218301e+01
      vertex   -1.121985e+01 1.250000e+01 -2.192101e+01
    endloop
  endfacet
  facet normal 1.000000e+00 0.000000e+00 0.000000e+00
    outer loop
      vertex   -1.121985e+01 9.500000e+00 -2.192101e+01
      vertex   -1.121985e+01 1.250000e+01 -2.192101e+01
      vertex   -1.121985e+01 9.500000e+00 -2.157899e+01
    endloop
  endfacet
  facet normal 1.000000e+00 -0.000000e+00 0.000000e+00
    outer loop
      vertex   -1.121985e+01 9.500000e+00 -2.157899e+01
      vertex   -1.121985e+01 1.250000e+01 -2.192101e+01
      vertex   -1.121985e+01 1.250000e+01 -2.157899e+01
    endloop
  endfacet
  facet normal 7.660427e-01 0.000000e+00 -6.427897e-01
    outer loop
      vertex   -1.121985e+01 9.500000e+00 -2.157899e+01
      vertex   -1.121985e+01 1.250000e+01 -2.157899e+01
      vertex   -1.100000e+01 9.500000e+00 -2.131699e+01
    endloop
  endfacet
  facet normal 7.660427e-01 0.000000e+00 -6.427897e-01
    outer loop
      vertex   -1.100000e+01 9.500000e+00 -2.131699e+01
      vertex   -1.121985e+01 1.250000e+01 -2.157899e+01
      vertex   -1.100000e+01 1.250000e+01 -2.131699e+01
    endloop
  endfacet
  facet normal 1.736515e-01 0.000000e+00 -9.848072e-01
    outer loop
      vertex   -1.100000e+01 9.500000e+00 -2.131699e+01
      vertex   -1.100000e+01 1.250000e+01 -2.131699e+01
      vertex   -1.066318e+01 9.500000e+00 -2.125760e+01
    endloop
  endfacet
  facet normal 1.736515e-01 0.000000e+00 -9.848072e-01
    outer loop
      vertex   -1.066318e+01 9.500000e+00 -2.125760e+01
      vertex   -1.100000e+01 1.250000e+01 -2.131699e+01
      vertex   -1.066318e+01 1.250000e+01 -2.125760e+01
    endloop
  endfacet
  facet normal -5.000009e-01 0.000000e+00 -8.660249e-01
    outer loop
      vertex   -1.066318e+01 9.500000e+00 -2.125760e+01
      vertex   -1.066318e+01 1.250000e+01 -2.125760e+01
      vertex   -1.036698e+01 9.500000e+00 -2.142861e+01
    endloop
  endfacet
  facet normal -5.000009e-01 0.000000e+00 -8.660249e-01
    outer loop
      vertex   -1.036698e+01 9.500000e+00 -2.142861e+01
      vertex   -1.066318e+01 1.250000e+01 -2.125760e+01
      vertex   -1.036698e+01 1.250000e+01 -2.142861e+01
    endloop
  endfacet
  facet normal -9.396926e-01 0.000000e+00 -3.420201e-01
    outer loop
      vertex   5.633022e+00 9.500000e+00 -9.178606e+00
      vertex   5.633022e+00 1.250000e+01 -9.178606e+00
      vertex   5.750000e+00 9.500000e+00 -9.500000e+00
    endloop
  endfacet
  facet normal -9.396926e-01 0.000000e+00 -3.420201e-01
    outer loop
      vertex   5.750000e+00 9.500000e+00 -9.500000e+00
      vertex   5.633022e+00 1.250000e+01 -9.178606e+00
      vertex   5.750000e+00 1.250000e+01 -9.500000e+00
    endloop
  endfacet
  facet normal -9.396928e-01 0.000000e+00 3.420195e-01
    outer loop
      vertex   5.750000e+00 9.500000e+00 -9.500000e+00
      vertex   5.750000e+00 1.250000e+01 -9.500000e+00
      vertex   5.633022e+00 9.500000e+00 -9.821394e+00
    endloop
  endfacet
  facet normal -9.396928e-01 0.000000e+00 3.420195e-01
    outer loop
      vertex   5.633022e+00 9.500000e+00 -9.821394e+00
      vertex   5.750000e+00 1.250000e+01 -9.500000e+00
      vertex   5.633022e+00 1.250000e+01 -9.821394e+00
    endloop
  endfacet
  facet normal -4.999996e-01 0.000000e+00 8.660256e-01
    outer loop
      vertex   5.633022e+00 9.500000e+00 -9.821394e+00
      vertex   5.633022e+00 1.250000e+01 -9.821394e+00
      vertex   5.336824e+00 9.500000e+00 -9.992404e+00
    endloop
  endfacet
  facet normal -4.999996e-01 0.000000e+00 8.660256e-01
    outer loop
      vertex   5.336824e+00 9.500000e+00 -9.992404e+00
      vertex   5.633022e+00 1.250000e+01 -9.821394e+00
      vertex   5.336824e+00 1.250000e+01 -9.992404e+00
    endloop
  endfacet
  facet normal 1.736484e-01 -0.000000e+00 9.848077e-01
    outer loop
      vertex   5.336824e+00 9.500000e+00 -9.992404e+00
      vertex   5.336824e+00 1.250000e+01 -9.992404e+00
      vertex   5.000000e+00 9.500000e+00 -9.933013e+00
    endloop
  endfacet
  facet normal 1.736484e-01 -0.000000e+00 9.848077e-01
    outer loop
      vertex   5.000000e+00 9.500000e+00 -9.933013e+00
      vertex   5.336824e+00 1.250000e+01 -9.992404e+00
      vertex   5.000000e+00 1.250000e+01 -9.933013e+00
    endloop
  endfacet
  facet normal 7.660447e-01 -0.000000e+00 6.427873e-01
    outer loop
      vertex   5.000000e+00 9.500000e+00 -9.933013e+00
      vertex   5.000000e+00 1.250000e+01 -9.933013e+00
      vertex   4.780154e+00 9.500000e+00 -9.671010e+00
    endloop
  endfacet
  facet normal 7.660447e-01 -0.000000e+00 6.427873e-01
    outer loop
      vertex   4.780154e+00 9.500000e+00 -9.671010e+00
      vertex   5.000000e+00 1.250000e+01 -9.933013e+00
      vertex   4.780154e+00 1.250000e+01 -9.671010e+00
    endloop
  endfacet
  facet normal 1.000000e+00 0.000000e+00 0.000000e+00
    outer loop
      vertex   4.780154e+00 9.500000e+00 -9.671010e+00
      vertex   4.780154e+00 1.250000e+01 -9.671010e+00
      vertex   4.780154e+00 9.500000e+00 -9.328990e+00
    endloop
  endfacet
  facet normal 1.000000e+00 -0.000000e+00 0.000000e+00
    outer loop
      vertex   4.780154e+00 9.500000e+00 -9.328990e+00
      vertex   4.780154e+00 1.250000e+01 -9.671010e+00
      vertex   4.780154e+00 1.250000e+01 -9.328990e+00
    endloop
  endfacet
  facet normal 7.660447e-01 0.000000e+00 -6.427873e-01
    outer loop
      vertex   4.780154e+00 9.500000e+00 -9.328990e+00
      vertex   4.780154e+00 1.250000e+01 -9.328990e+00
      vertex   5.000000e+00 9.500000e+00 -9.066987e+00
    endloop
  endfacet
  facet normal 7.660447e-01 0.000000e+00 -6.427873e-01
    outer loop
      vertex   5.000000e+00 9.500000e+00 -9.066987e+00
      vertex   4.780154e+00 1.250000e+01 -9.328990e+00
      vertex   5.000000e+00 1.250000e+01 -9.066987e+00
    endloop
  endfacet
  facet normal 1.736467e-01 0.000000e+00 -9.848080e-01
    outer loop
      vertex   5.000000e+00 9.500000e+00 -9.066987e+00
      vertex   5.000000e+00 1.250000e+01 -9.066987e+00
      vertex   5.336824e+00 9.500000e+00 -9.007596e+00
    endloop
  endfacet
  facet normal 1.736467e-01 0.000000e+00 -9.848080e-01
    outer loop
      vertex   5.336824e+00 9.500000e+00 -9.007596e+00
      vertex   5.000000e+00 1.250000e+01 -9.066987e+00
      vertex   5.336824e+00 1.250000e+01 -9.007596e+00
    endloop
  endfacet
  facet normal -4.999996e-01 0.000000e+00 -8.660256e-01
    outer loop
      vertex   5.336824e+00 9.500000e+00 -9.007596e+00
      vertex   5.336824e+00 1.250000e+01 -9.007596e+00
      vertex   5.633022e+00 9.500000e+00 -9.178606e+00
    endloop
  endfacet
  facet normal -4.999996e-01 0.000000e+00 -8.660256e-01
    outer loop
      vertex   5.633022e+00 9.500000e+00 -9.178606e+00
      vertex   5.336824e+00 1.250000e+01 -9.007596e+00
      vertex   5.633022e+00 1.250000e+01 -9.178606e+00
    endloop
  endfacet
  facet normal 0.000000e+00 1.000000e+00 0.000000e+00
    outer loop
      vertex   -1.025000e+01 9.500000e+00 -2.175000e+01
      vertex   -1.036698e+01 9.500000e+00 -2.207139e+01
      vertex   -1.036698e+01 9.500000e+00 -2.142861e+01
    endloop
  endfacet
  facet normal 0.000000e+00 1.000000e+00 0.000000e+00
    outer loop
      vertex   -1.036698e+01 9.500000e+00 -2.142861e+01
      vertex   -1.036698e+01 9.500000e+00 -2.207139e+01
      vertex   -1.066318e+01 9.500000e+00 -2.125760e+01
    endloop
  endfacet
  facet normal 0.000000e+00 1.000000e+00 0.000000e+00
    outer loop
      vertex   -1.066318e+01 9.500000e+00 -2.125760e+01
      vertex   -1.036698e+01 9.500000e+00 -2.207139e+01
      vertex   -1.066318e+01 9.500000e+00 -2.224240e+01
    endloop
  endfacet
  facet normal 0.000000e+00 1.000000e+00 0.000000e+00
    outer loop
      vertex   -1.066318e+01 9.500000e+00 -2.125760e+01
      vertex   -1.066318e+01 9.500000e+00 -2.224240e+01
      vertex   -1.100000e+01 9.500000e+00 -2.131699e+01
    endloop
  endfacet
  facet normal 0.000000e+00 1.000000e+00 0.000000e+00
    outer loop
      vertex   -1.100000e+01 9.500000e+00 -2.131699e+01
      vertex   -1.066318e+01 9.500000e+00 -2.224240e+01
      vertex   -1.100000e+01 9.500000e+00 -2.218301e+01
    endloop
  endfacet
  facet normal 0.000000e+00 1.000000e+00 0.000000e+00
    outer loop
      vertex   -1.100000e+01 9.500000e+00 -2.131699e+01
      vertex   -1.100000e+01 9.500000e+00 -2.218301e+01
      vertex   -1.121985e+01 9.500000e+00 -2.157899e+01
    endloop
  endfacet
  facet normal 0.000000e+00 1.000000e+00 0.000000e+00
    outer loop
      vertex   -1.121985e+01 9.500000e+00 -2.157899e+01
      vertex   -1.100000e+01 9.500000e+00 -2.218301e+01
      vertex   -1.121985e+01 9.500000e+00 -2.192101e+01
    endloop
  endfacet
  facet normal -9.396927e-01 0.000000e+00 -3.420198e-01
    outer loop
      vertex   -1.136698e+01 9.500000e+00 4.210929e+00
      vertex   -1.136698e+01 1.250000e+01 4.210929e+00
      vertex   -1.125000e+01 9.500000e+00 3.889535e+00
    endloop
  endfacet
  facet normal -9.396927e-01 0.000000e+00 -3.420198e-01
    outer loop
      vertex   -1.125000e+01 9.500000e+00 3.889535e+00
      vertex   -1.136698e+01 1.250000e+01 4.210929e+00
      vertex   -1.125000e+01 1.250000e+01 3.889535e+00
    endloop
  endfacet
  facet normal -9.396926e-01 0.000000e+00 3.420201e-01
    outer loop
      vertex   -1.125000e+01 9.500000e+00 3.889535e+00
      vertex   -1.125000e+01 1.250000e+01 3.889535e+00
      vertex   -1.136698e+01 9.500000e+00 3.568141e+00
    endloop
  endfacet
  facet normal -9.396926e-01 0.000000e+00 3.420201e-01
    outer loop
      vertex   -1.136698e+01 9.500000e+00 3.568141e+00
      vertex   -1.125000e+01 1.250000e+01 3.889535e+00
      vertex   -1.136698e+01 1.250000e+01 3.568141e+00
    endloop
  endfacet
  facet normal -5.000003e-01 0.000000e+00 8.660252e-01
    outer loop
      vertex   -1.136698e+01 9.500000e+00 3.568141e+00
      vertex   -1.136698e+01 1.250000e+01 3.568141e+00
      vertex   -1.166318e+01 9.500000e+00 3.397131e+00
    endloop
  endfacet
  facet normal -5.000003e-01 0.000000e+00 8.660252e-01
    outer loop
      vertex   -1.166318e+01 9.500000e+00 3.397131e+00
      vertex   -1.136698e+01 1.250000e+01 3.568141e+00
      vertex   -1.166318e+01 1.250000e+01 3.397131e+00
    endloop
  endfacet
  facet normal 1.736481e-01 -0.000000e+00 9.848078e-01
    outer loop
      vertex   -1.166318e+01 9.500000e+00 3.397131e+00
      vertex   -1.166318e+01 1.250000e+01 3.397131e+00
      vertex   -1.200000e+01 9.500000e+00 3.456522e+00
    endloop
  endfacet
  facet normal 1.736481e-01 -0.000000e+00 9.848078e-01
    outer loop
      vertex   -1.200000e+01 9.500000e+00 3.456522e+00
      vertex   -1.166318e+01 1.250000e+01 3.397131e+00
      vertex   -1.200000e+01 1.250000e+01 3.456522e+00
    endloop
  endfacet
  facet normal 7.660452e-01 -0.000000e+00 6.427867e-01
    outer loop
      vertex   -1.200000e+01 9.500000e+00 3.456522e+00
      vertex   -1.200000e+01 1.250000e+01 3.456522e+00
      vertex   -1.221985e+01 9.500000e+00 3.718525e+00
    endloop
  endfacet
  facet normal 7.660452e-01 -0.000000e+00 6.427867e-01
    outer loop
      vertex   -1.221985e+01 9.500000e+00 3.718525e+00
      vertex   -1.200000e+01 1.250000e+01 3.456522e+00
      vertex   -1.221985e+01 1.250000e+01 3.718525e+00
    endloop
  endfacet
  facet normal 1.000000e+00 0.000000e+00 0.000000e+00
    outer loop
      vertex   -1.221985e+01 9.500000e+00 3.718525e+00
      vertex   -1.221985e+01 1.250000e+01 3.718525e+00
      vertex   -1.221985e+01 9.500000e+00 4.060545e+00
    endloop
  endfacet
  facet normal 1.000000e+00 -0.000000e+00 0.000000e+00
    outer loop
      vertex   -1.221985e+01 9.500000e+00 4.060545e+00
      vertex   -1.221985e+01 1.250000e+01 3.718525e+00
      vertex   -1.221985e+01 1.250000e+01 4.060545e+00
    endloop
  endfacet
  facet normal 7.660452e-01 0.000000e+00 -6.427867e-01
    outer loop
      vertex   -1.221985e+01 9.500000e+00 4.060545e+00
      vertex   -1.221985e+01 1.250000e+01 4.060545e+00
      vertex   -1.200000e+01 9.500000e+00 4.322548e+00
    endloop
  endfacet
  facet normal 7.660452e-01 0.000000e+00 -6.427867e-01
    outer loop
      vertex   -1.200000e+01 9.500000e+00 4.322548e+00
      vertex   -1.221985e+01 1.250000e+01 4.060545e+00
      vertex   -1.200000e+01 1.250000e+01 4.322548e+00
    endloop
  endfacet
  facet normal 1.736481e-01 0.000000e+00 -9.848078e-01
    outer loop
      vertex   -1.200000e+01 9.500000e+00 4.322548e+00
      vertex   -1.200000e+01 1.250000e+01 4.322548e+00
      vertex   -1.166318e+01 9.500000e+00 4.381939e+00
    endloop
  endfacet
  facet normal 1.736481e-01 0.000000e+00 -9.848078e-01
    outer loop
      vertex   -1.166318e+01 9.500000e+00 4.381939e+00
      vertex   -1.200000e+01 1.250000e+01 4.322548e+00
      vertex   -1.166318e+01 1.250000e+01 4.381939e+00
    endloop
  endfacet
  facet normal -5.000003e-01 0.000000e+00 -8.660252e-01
    outer loop
      vertex   -1.166318e+01 9.500000e+00 4.381939e+00
      vertex   -1.166318e+01 1.250000e+01 4.381939e+00
      vertex   -1.136698e+01 9.500000e+00 4.210929e+00
    endloop
  endfacet
  facet normal -5.000003e-01 0.000000e+00 -8.660252e-01
    outer loop
      vertex   -1.136698e+01 9.500000e+00 4.210929e+00
      vertex   -1.166318e+01 1.250000e+01 4.381939e+00
      vertex   -1.136698e+01 1.250000e+01 4.210929e+00
    endloop
  endfacet
  facet normal 0.000000e+00 1.000000e+00 0.000000e+00
    outer loop
      vertex   5.750000e+00 9.500000e+00 -9.500000e+00
      vertex   5.633022e+00 9.500000e+00 -9.821394e+00
      vertex   5.633022e+00 9.500000e+00 -9.178606e+00
    endloop
  endfacet
  facet normal 0.000000e+00 1.000000e+00 0.000000e+00
    outer loop
      vertex   5.633022e+00 9.500000e+00 -9.178606e+00
      vertex   5.633022e+00 9.500000e+00 -9.821394e+00
      vertex   5.336824e+00 9.500000e+00 -9.007596e+00
    endloop
  endfacet
  facet normal 0.000000e+00 1.000000e+00 0.000000e+00
    outer loop
      vertex   5.336824e+00 9.500000e+00 -9.007596e+00
      vertex   5.633022e+00 9.500000e+00 -9.821394e+00
      vertex   5.336824e+00 9.500000e+00 -9.992404e+00
    endloop
  endfacet
  facet normal 0.000000e+00 1.000000e+00 0.000000e+00
    outer loop
      vertex   5.336824e+00 9.500000e+00 -9.007596e+00
      vertex   5.336824e+00 9.500000e+00 -9.992404e+00
      vertex   5.000000e+00 9.500000e+00 -9.066987e+00
    endloop
  endfacet
  facet normal 0.000000e+00 1.000000e+00 0.000000e+00
    outer loop
      vertex   5.000000e+00 9.500000e+00 -9.066987e+00
      vertex   5.336824e+00 9.500000e+00 -9.992404e+00
      vertex   5.000000e+00 9.500000e+00 -9.933013e+00
    endloop
  endfacet
  facet normal 0.000000e+00 1.000000e+00 0.000000e+00
    outer loop
      vertex   5.000000e+00 9.500000e+00 -9.066987e+00
      vertex   5.000000e+00 9.500000e+00 -9.933013e+00
      vertex   4.780154e+00 9.500000e+00 -9.328990e+00
    endloop
  endfacet
  facet normal 0.000000e+00 1.000000e+00 0.000000e+00
    outer loop
      vertex   4.780154e+00 9.500000e+00 -9.328990e+00
      vertex   5.000000e+00 9.500000e+00 -9.933013e+00
      vertex   4.780154e+00 9.500000e+00 -9.671010e+00
    endloop
  endfacet
  facet normal 0.000000e+00 1.000000e+00 0.000000e+00
    outer loop
      vertex   -1.125000e+01 9.500000e+00 3.889535e+00
      vertex   -1.136698e+01 9.500000e+00 3.568141e+00
      vertex   -1.136698e+01 9.500000e+00 4.210929e+00
    endloop
  endfacet
  facet normal 0.000000e+00 1.000000e+00 0.000000e+00
    outer loop
      vertex   -1.136698e+01 9.500000e+00 4.210929e+00
      vertex   -1.136698e+01 9.500000e+00 3.568141e+00
      vertex   -1.166318e+01 9.500000e+00 4.381939e+00
    endloop
  endfacet
  facet normal 0.000000e+00 1.000000e+00 0.000000e+00
    outer loop
      vertex   -1.166318e+01 9.500000e+00 4.381939e+00
      vertex   -1.136698e+01 9.500000e+00 3.568141e+00
      vertex   -1.166318e+01 9.500000e+00 3.397131e+00
    endloop
  endfacet
  facet normal 0.000000e+00 1.000000e+00 0.000000e+00
    outer loop
      vertex   -1.166318e+01 9.500000e+00 4.381939e+00
      vertex   -1.166318e+01 9.500000e+00 3.397131e+00
      vertex   -1.200000e+01 9.500000e+00 4.322548e+00
    endloop
  endfacet
  facet normal 0.000000e+00 1.000000e+00 0.000000e+00
    outer loop
      vertex   -1.200000e+01 9.500000e+00 4.322548e+00
      vertex   -1.166318e+01 9.500000e+00 3.397131e+00
      vertex   -1.200000e+01 9.500000e+00 3.456522e+00
    endloop
  endfacet
  facet normal 0.000000e+00 1.000000e+00 0.000000e+00
    outer loop
      vertex   -1.200000e+01 9.500000e+00 4.322548e+00
      vertex   -1.200000e+01 9.500000e+00 3.456522e+00
      vertex   -1.221985e+01 9.500000e+00 4.060545e+00
    endloop
  endfacet
  facet normal 0.000000e+00 1.000000e+00 0.000000e+00
    outer loop
      vertex   -1.221985e+01 9.500000e+00 4.060545e+00
      vertex   -1.200000e+01 9.500000e+00 3.456522e+00
      vertex   -1.221985e+01 9.500000e+00 3.718525e+00
    endloop
  endfacet
  facet normal -4.082479e-01 -8.164966e-01 4.082486e-01
    outer loop
      vertex   -2.150000e+01 2.000000e+00 1.255051e+01
      vertex   -1.950000e+01 0.000000e+00 1.055051e+01
      vertex   -2.150000e+01 2.224745e+00 1.300000e+01
    endloop
  endfacet
  facet normal -4.082483e-01 -8.164966e-01 4.082483e-01
    outer loop
      vertex   -2.150000e+01 2.224745e+00 1.300000e+01
      vertex   -1.950000e+01 0.000000e+00 1.055051e+01
      vertex   -1.705051e+01 0.000000e+00 1.300000e+01
    endloop
  endfacet
  facet normal -4.082483e-01 -8.164966e-01 4.082483e-01
    outer loop
      vertex   -2.150000e+01 2.224745e+00 1.300000e+01
      vertex   -1.705051e+01 0.000000e+00 1.300000e+01
      vertex   -1.950000e+01 2.224745e+00 1.500000e+01
    endloop
  endfacet
  facet normal -4.082475e-01 -8.164966e-01 4.082492e-01
    outer loop
      vertex   -1.950000e+01 2.224745e+00 1.500000e+01
      vertex   -1.705051e+01 0.000000e+00 1.300000e+01
      vertex   -1.905051e+01 2.000000e+00 1.500000e+01
    endloop
  endfacet
  facet normal 1.000000e+00 0.000000e+00 -0.000000e+00
    outer loop
      vertex   0.000000e+00 1.550000e+01 -3.000000e+00
      vertex   0.000000e+00 1.550000e+01 1.300000e+01
      vertex   0.000000e+00 9.000000e+00 0.000000e+00
    endloop
  endfacet
  facet normal 1.000000e+00 0.000000e+00 -0.000000e+00
    outer loop
      vertex   0.000000e+00 9.000000e+00 0.000000e+00
      vertex   0.000000e+00 1.550000e+01 1.300000e+01
      vertex   0.000000e+00 2.224745e+00 1.300000e+01
    endloop
  endfacet
  facet normal 1.000000e+00 0.000000e+00 0.000000e+00
    outer loop
      vertex   0.000000e+00 9.000000e+00 0.000000e+00
      vertex   0.000000e+00 2.224745e+00 1.300000e+01
      vertex   0.000000e+00 2.000000e+00 0.000000e+00
    endloop
  endfacet
  facet normal 1.000000e+00 0.000000e+00 0.000000e+00
    outer loop
      vertex   0.000000e+00 2.000000e+00 0.000000e+00
      vertex   0.000000e+00 2.224745e+00 1.300000e+01
      vertex   0.000000e+00 2.000000e+00 1.255051e+01
    endloop
  endfacet
  facet normal 1.000000e+00 0.000000e+00 0.000000e+00
    outer loop
      vertex   0.000000e+00 9.000000e+00 0.000000e+00
      vertex   0.000000e+00 9.000000e+00 -3.000000e+00
      vertex   0.000000e+00 1.550000e+01 -3.000000e+00
    endloop
  endfacet
  facet normal 7.071068e-01 -7.071068e-01 0.000000e+00
    outer loop
      vertex   0.000000e+00 2.000000e+00 1.255051e+01
      vertex   -2.000000e+00 0.000000e+00 1.055051e+01
      vertex   0.000000e+00 2.000000e+00 0.000000e+00
    endloop
  endfacet
  facet normal 7.071068e-01 -7.071068e-01 0.000000e+00
    outer loop
      vertex   0.000000e+00 2.000000e+00 0.000000e+00
      vertex   -2.000000e+00 0.000000e+00 1.055051e+01
      vertex   -2.000000e+00 0.000000e+00 0.000000e+00
    endloop
  endfacet
  facet normal 7.071069e-01 0.000000e+00 7.071067e-01
    outer loop
      vertex   0.000000e+00 1.550000e+01 1.300000e+01
      vertex   -2.000000e+00 1.550000e+01 1.500000e+01
      vertex   0.000000e+00 2.224745e+00 1.300000e+01
    endloop
  endfacet
  facet normal 7.071069e-01 0.000000e+00 7.071067e-01
    outer loop
      vertex   0.000000e+00 2.224745e+00 1.300000e+01
      vertex   -2.000000e+00 1.550000e+01 1.500000e+01
      vertex   -2.000000e+00 2.224745e+00 1.500000e+01
    endloop
  endfacet
  facet normal 4.082483e-01 -8.164966e-01 4.082482e-01
    outer loop
      vertex   -4.449490e+00 0.000000e+00 1.300000e+01
      vertex   -2.000000e+00 0.000000e+00 1.055051e+01
      vertex   -2.449490e+00 2.000000e+00 1.500000e+01
    endloop
  endfacet
  facet normal 4.082483e-01 -8.164966e-01 4.082482e-01
    outer loop
      vertex   -2.449490e+00 2.000000e+00 1.500000e+01
      vertex   -2.000000e+00 0.000000e+00 1.055051e+01
      vertex   0.000000e+00 2.000000e+00 1.255051e+01
    endloop
  endfacet
  facet normal 4.082483e-01 -8.164966e-01 4.082483e-01
    outer loop
      vertex   -2.449490e+00 2.000000e+00 1.500000e+01
      vertex   0.000000e+00 2.000000e+00 1.255051e+01
      vertex   -2.000000e+00 2.224745e+00 1.500000e+01
    endloop
  endfacet
  facet normal 4.082485e-01 -8.164964e-01 4.082485e-01
    outer loop
      vertex   -2.000000e+00 2.224745e+00 1.500000e+01
      vertex   0.000000e+00 2.000000e+00 1.255051e+01
      vertex   0.000000e+00 2.224745e+00 1.300000e+01
    endloop
  endfacet
  facet normal -4.082475e-01 -8.164966e-01 -4.082492e-01
    outer loop
      vertex   -1.905051e+01 2.000000e+00 -3.400000e+01
      vertex   -1.705051e+01 0.000000e+00 -3.200000e+01
      vertex   -1.950000e+01 2.224745e+00 -3.400000e+01
    endloop
  endfacet
  facet normal -4.082483e-01 -8.164966e-01 -4.082481e-01
    outer loop
      vertex   -1.950000e+01 2.224745e+00 -3.400000e+01
      vertex   -1.705051e+01 0.000000e+00 -3.200000e+01
      vertex   -1.950000e+01 0.000000e+00 -2.955051e+01
    endloop
  endfacet
  facet normal -4.082482e-01 -8.164967e-01 -4.082482e-01
    outer loop
      vertex   -1.950000e+01 2.224745e+00 -3.400000e+01
      vertex   -1.950000e+01 0.000000e+00 -2.955051e+01
      vertex   -2.150000e+01 2.224745e+00 -3.200000e+01
    endloop
  endfacet
  facet normal -4.082490e-01 -8.164966e-01 -4.082475e-01
    outer loop
      vertex   -2.150000e+01 2.224745e+00 -3.200000e+01
      vertex   -1.950000e+01 0.000000e+00 -2.955051e+01
      vertex   -2.150000e+01 2.000000e+00 -3.155051e+01
    endloop
  endfacet
  facet normal -7.071068e-01 -0.000000e+00 -7.071068e-01
    outer loop
      vertex   -2.150000e+01 1.550000e+01 -3.200000e+01
      vertex   -1.950000e+01 1.550000e+01 -3.400000e+01
      vertex   -2.150000e+01 2.224745e+00 -3.200000e+01
    endloop
  endfacet
  facet normal -7.071068e-01 0.000000e+00 -7.071068e-01
    outer loop
      vertex   -2.150000e+01 2.224745e+00 -3.200000e+01
      vertex   -1.950000e+01 1.550000e+01 -3.400000e+01
      vertex   -1.950000e+01 2.224745e+00 -3.400000e+01
    endloop
  endfacet
  facet normal -7.071067e-01 -7.071069e-01 -0.000000e+00
    outer loop
      vertex   -2.150000e+01 2.000000e+00 1.255051e+01
      vertex   -2.150000e+01 2.000000e+00 -3.155051e+01
      vertex   -1.950000e+01 0.000000e+00 1.055051e+01
    endloop
  endfacet
  facet normal -7.071067e-01 -7.071069e-01 -0.000000e+00
    outer loop
      vertex   -1.950000e+01 0.000000e+00 1.055051e+01
      vertex   -2.150000e+01 2.000000e+00 -3.155051e+01
      vertex   -1.950000e+01 0.000000e+00 -2.955051e+01
    endloop
  endfacet
  facet normal -1.000000e+00 -0.000000e+00 -0.000000e+00
    outer loop
      vertex   -2.150000e+01 1.550000e+01 1.300000e+01
      vertex   -2.150000e+01 1.550000e+01 -3.200000e+01
      vertex   -2.150000e+01 2.224745e+00 1.300000e+01
    endloop
  endfacet
  facet normal -1.000000e+00 0.000000e+00 0.000000e+00
    outer loop
      vertex   -2.150000e+01 2.224745e+00 1.300000e+01
      vertex   -2.150000e+01 1.550000e+01 -3.200000e+01
      vertex   -2.150000e+01 2.224745e+00 -3.200000e+01
    endloop
  endfacet
  facet normal -1.000000e+00 0.000000e+00 -0.000000e+00
    outer loop
      vertex   -2.150000e+01 2.224745e+00 1.300000e+01
      vertex   -2.150000e+01 2.224745e+00 -3.200000e+01
      vertex   -2.150000e+01 2.000000e+00 1.255051e+01
    endloop
  endfacet
  facet normal -1.000000e+00 0.000000e+00 0.000000e+00
    outer loop
      vertex   -2.150000e+01 2.000000e+00 1.255051e+01
      vertex   -2.150000e+01 2.224745e+00 -3.200000e+01
      vertex   -2.150000e+01 2.000000e+00 -3.155051e+01
    endloop
  endfacet
  facet normal 7.071069e-01 0.000000e+00 -7.071067e-01
    outer loop
      vertex   -2.000000e+00 1.550000e+01 -3.400000e+01
      vertex   0.000000e+00 1.550000e+01 -3.200000e+01
      vertex   -2.000000e+00 2.224745e+00 -3.400000e+01
    endloop
  endfacet
  facet normal 7.071069e-01 0.000000e+00 -7.071067e-01
    outer loop
      vertex   -2.000000e+00 2.224745e+00 -3.400000e+01
      vertex   0.000000e+00 1.550000e+01 -3.200000e+01
      vertex   0.000000e+00 2.224745e+00 -3.200000e+01
    endloop
  endfacet
  facet normal 4.082484e-01 -8.164966e-01 -4.082481e-01
    outer loop
      vertex   -2.000000e+00 0.000000e+00 -2.955051e+01
      vertex   -4.449490e+00 0.000000e+00 -3.200000e+01
      vertex   0.000000e+00 2.000000e+00 -3.155051e+01
    endloop
  endfacet
  facet normal 4.082484e-01 -8.164966e-01 -4.082481e-01
    outer loop
      vertex   0.000000e+00 2.000000e+00 -3.155051e+01
      vertex   -4.449490e+00 0.000000e+00 -3.200000e+01
      vertex   -2.449490e+00 2.000000e+00 -3.400000e+01
    endloop
  endfacet
  facet normal 4.082479e-01 -8.164970e-01 -4.082477e-01
    outer loop
      vertex   0.000000e+00 2.000000e+00 -3.155051e+01
      vertex   -2.449490e+00 2.000000e+00 -3.400000e+01
      vertex   0.000000e+00 2.224745e+00 -3.200000e+01
    endloop
  endfacet
  facet normal 4.082483e-01 -8.164966e-01 -4.082482e-01
    outer loop
      vertex   0.000000e+00 2.224745e+00 -3.200000e+01
      vertex   -2.449490e+00 2.000000e+00 -3.400000e+01
      vertex   -2.000000e+00 2.224745e+00 -3.400000e+01
    endloop
  endfacet
  facet normal -0.000000e+00 -7.071069e-01 -7.071067e-01
    outer loop
      vertex   -4.449490e+00 0.000000e+00 -3.200000e+01
      vertex   -1.705051e+01 0.000000e+00 -3.200000e+01
      vertex   -2.449490e+00 2.000000e+00 -3.400000e+01
    endloop
  endfacet
  facet normal -0.000000e+00 -7.071069e-01 -7.071067e-01
    outer loop
      vertex   -2.449490e+00 2.000000e+00 -3.400000e+01
      vertex   -1.705051e+01 0.000000e+00 -3.200000e+01
      vertex   -1.905051e+01 2.000000e+00 -3.400000e+01
    endloop
  endfacet
  facet normal -0.000000e+00 0.000000e+00 -1.000000e+00
    outer loop
      vertex   -2.000000e+00 2.224745e+00 -3.400000e+01
      vertex   -2.449490e+00 2.000000e+00 -3.400000e+01
      vertex   -2.000000e+00 1.550000e+01 -3.400000e+01
    endloop
  endfacet
  facet normal 0.000000e+00 0.000000e+00 -1.000000e+00
    outer loop
      vertex   -2.000000e+00 1.550000e+01 -3.400000e+01
      vertex   -2.449490e+00 2.000000e+00 -3.400000e+01
      vertex   -1.905051e+01 2.000000e+00 -3.400000e+01
    endloop
  endfacet
  facet normal -0.000000e+00 0.000000e+00 -1.000000e+00
    outer loop
      vertex   -2.000000e+00 1.550000e+01 -3.400000e+01
      vertex   -1.905051e+01 2.000000e+00 -3.400000e+01
      vertex   -1.950000e+01 1.550000e+01 -3.400000e+01
    endloop
  endfacet
  facet normal 0.000000e+00 0.000000e+00 -1.000000e+00
    outer loop
      vertex   -1.950000e+01 1.550000e+01 -3.400000e+01
      vertex   -1.905051e+01 2.000000e+00 -3.400000e+01
      vertex   -1.950000e+01 2.224745e+00 -3.400000e+01
    endloop
  endfacet
endsolid
