solid ASCII
  facet normal -6.154122e-01 0.000000e+00 7.882054e-01
    outer loop
      vertex   -4.625000e+00 0.000000e+00 1.150000e+01
      vertex   -2.139929e+00 0.000000e+00 1.344028e+01
      vertex   -4.625000e+00 1.000000e+01 1.150000e+01
    endloop
  endfacet
  facet normal -6.154122e-01 0.000000e+00 7.882054e-01
    outer loop
      vertex   -4.625000e+00 1.000000e+01 1.150000e+01
      vertex   -2.139929e+00 0.000000e+00 1.344028e+01
      vertex   -2.139929e+00 1.000000e+01 1.344028e+01
    endloop
  endfacet
  facet normal -9.701425e-01 0.000000e+00 2.425356e-01
    outer loop
      vertex   -2.139929e+00 0.000000e+00 1.344028e+01
      vertex   2.000000e+00 0.000000e+00 3.000000e+01
      vertex   -2.139929e+00 1.000000e+01 1.344028e+01
    endloop
  endfacet
  facet normal -9.701425e-01 0.000000e+00 2.425356e-01
    outer loop
      vertex   -2.139929e+00 1.000000e+01 1.344028e+01
      vertex   2.000000e+00 0.000000e+00 3.000000e+01
      vertex   2.000000e+00 1.000000e+01 3.000000e+01
    endloop
  endfacet
  facet normal -7.071068e-01 0.000000e+00 -7.071068e-01
    outer loop
      vertex   -2.000000e+00 0.000000e+00 8.000000e+00
      vertex   -4.000000e+00 0.000000e+00 1.000000e+01
      vertex   -2.000000e+00 1.000000e+01 8.000000e+00
    endloop
  endfacet
  facet normal -7.071068e-01 0.000000e+00 -7.071068e-01
    outer loop
      vertex   -2.000000e+00 1.000000e+01 8.000000e+00
      vertex   -4.000000e+00 0.000000e+00 1.000000e+01
      vertex   -4.000000e+00 1.000000e+01 1.000000e+01
    endloop
  endfacet
  facet normal 0.000000e+00 0.000000e+00 -1.000000e+00
    outer loop
      vertex   -4.000000e+00 0.000000e+00 1.000000e+01
      vertex   -8.000000e+00 0.000000e+00 1.000000e+01
      vertex   -4.000000e+00 1.000000e+01 1.000000e+01
    endloop
  endfacet
  facet normal -0.000000e+00 0.000000e+00 -1.000000e+00
    outer loop
      vertex   -4.000000e+00 1.000000e+01 1.000000e+01
      vertex   -8.000000e+00 0.000000e+00 1.000000e+01
      vertex   -8.000000e+00 1.000000e+01 1.000000e+01
    endloop
  endfacet
  facet normal 0.000000e+00 1.000000e+00 0.000000e+00
    outer loop
      vertex   -3.019224e+00 1.000000e+01 -1.380000e+01
      vertex   -9.250000e+01 1.000000e+01 -1.380000e+01
      vertex   -9.050000e+01 1.000000e+01 -1.030000e+01
    endloop
  endfacet
  facet normal 0.000000e+00 1.000000e+00 0.000000e+00
    outer loop
      vertex   -9.050000e+01 1.000000e+01 -1.030000e+01
      vertex   -9.250000e+01 1.000000e+01 -1.380000e+01
      vertex   -9.550000e+01 1.000000e+01 -1.080000e+01
    endloop
  endfacet
  facet normal 0.000000e+00 1.000000e+00 0.000000e+00
    outer loop
      vertex   -9.050000e+01 1.000000e+01 -1.030000e+01
      vertex   -9.550000e+01 1.000000e+01 -1.080000e+01
      vertex   -9.250000e+01 1.000000e+01 -8.300000e+00
    endloop
  endfacet
  facet normal 0.000000e+00 1.000000e+00 0.000000e+00
    outer loop
      vertex   -9.250000e+01 1.000000e+01 -8.300000e+00
      vertex   -9.550000e+01 1.000000e+01 -1.080000e+01
      vertex   -9.550000e+01 1.000000e+01 8.200000e+00
    endloop
  endfacet
  facet normal 0.000000e+00 1.000000e+00 -0.000000e+00
    outer loop
      vertex   -9.250000e+01 1.000000e+01 -8.300000e+00
      vertex   -9.550000e+01 1.000000e+01 8.200000e+00
      vertex   -9.250000e+01 1.000000e+01 7.700000e+00
    endloop
  endfacet
  facet normal 0.000000e+00 1.000000e+00 0.000000e+00
    outer loop
      vertex   -9.250000e+01 1.000000e+01 7.700000e+00
      vertex   -9.550000e+01 1.000000e+01 8.200000e+00
      vertex   -9.350000e+01 1.000000e+01 1.020000e+01
    endloop
  endfacet
  facet normal 0.000000e+00 1.000000e+00 -0.000000e+00
    outer loop
      vertex   -9.250000e+01 1.000000e+01 7.700000e+00
      vertex   -9.350000e+01 1.000000e+01 1.020000e+01
      vertex   -9.000000e+01 1.000000e+01 1.020000e+01
    endloop
  endfacet
  facet normal -0.000000e+00 1.000000e+00 0.000000e+00
    outer loop
      vertex   -9.050000e+01 1.000000e+01 -1.030000e+01
      vertex   -4.000000e+00 1.000000e+01 -1.030000e+01
      vertex   -3.019224e+00 1.000000e+01 -1.380000e+01
    endloop
  endfacet
  facet normal 0.000000e+00 1.000000e+00 -0.000000e+00
    outer loop
      vertex   -3.019224e+00 1.000000e+01 -1.380000e+01
      vertex   -4.000000e+00 1.000000e+01 -1.030000e+01
      vertex   -2.000000e+00 1.000000e+01 -8.300000e+00
    endloop
  endfacet
  facet normal -0.000000e+00 1.000000e+00 0.000000e+00
    outer loop
      vertex   -3.019224e+00 1.000000e+01 -1.380000e+01
      vertex   -2.000000e+00 1.000000e+01 -8.300000e+00
      vertex   -1.814929e+00 1.000000e+01 -1.474028e+01
    endloop
  endfacet
  facet normal -0.000000e+00 1.000000e+00 -0.000000e+00
    outer loop
      vertex   -1.814929e+00 1.000000e+01 -1.474028e+01
      vertex   -2.000000e+00 1.000000e+01 -8.300000e+00
      vertex   3.000000e+00 1.000000e+01 -3.000000e+01
    endloop
  endfacet
  facet normal 0.000000e+00 1.000000e+00 0.000000e+00
    outer loop
      vertex   -1.814929e+00 1.000000e+01 -1.474028e+01
      vertex   3.000000e+00 1.000000e+01 -3.000000e+01
      vertex   2.000000e+00 1.000000e+01 -3.000000e+01
    endloop
  endfacet
  facet normal -0.000000e+00 1.000000e+00 0.000000e+00
    outer loop
      vertex   -2.000000e+00 1.000000e+01 -8.300000e+00
      vertex   -2.000000e+00 1.000000e+01 8.000000e+00
      vertex   3.000000e+00 1.000000e+01 -3.000000e+01
    endloop
  endfacet
  facet normal 0.000000e+00 1.000000e+00 -0.000000e+00
    outer loop
      vertex   3.000000e+00 1.000000e+01 -3.000000e+01
      vertex   -2.000000e+00 1.000000e+01 8.000000e+00
      vertex   3.000000e+00 1.000000e+01 3.000000e+01
    endloop
  endfacet
  facet normal 0.000000e+00 1.000000e+00 0.000000e+00
    outer loop
      vertex   3.000000e+00 1.000000e+01 3.000000e+01
      vertex   -2.000000e+00 1.000000e+01 8.000000e+00
      vertex   -2.139929e+00 1.000000e+01 1.344028e+01
    endloop
  endfacet
  facet normal 0.000000e+00 1.000000e+00 0.000000e+00
    outer loop
      vertex   3.000000e+00 1.000000e+01 3.000000e+01
      vertex   -2.139929e+00 1.000000e+01 1.344028e+01
      vertex   2.000000e+00 1.000000e+01 3.000000e+01
    endloop
  endfacet
  facet normal 0.000000e+00 1.000000e+00 0.000000e+00
    outer loop
      vertex   -2.000000e+00 1.000000e+01 8.000000e+00
      vertex   -4.000000e+00 1.000000e+01 1.000000e+01
      vertex   -2.139929e+00 1.000000e+01 1.344028e+01
    endloop
  endfacet
  facet normal 0.000000e+00 1.000000e+00 0.000000e+00
    outer loop
      vertex   -2.139929e+00 1.000000e+01 1.344028e+01
      vertex   -4.000000e+00 1.000000e+01 1.000000e+01
      vertex   -4.625000e+00 1.000000e+01 1.150000e+01
    endloop
  endfacet
  facet normal 0.000000e+00 1.000000e+00 0.000000e+00
    outer loop
      vertex   -4.625000e+00 1.000000e+01 1.150000e+01
      vertex   -4.000000e+00 1.000000e+01 1.000000e+01
      vertex   -8.000000e+00 1.000000e+01 1.000000e+01
    endloop
  endfacet
  facet normal 0.000000e+00 1.000000e+00 0.000000e+00
    outer loop
      vertex   -4.625000e+00 1.000000e+01 1.150000e+01
      vertex   -8.000000e+00 1.000000e+01 1.000000e+01
      vertex   -1.100000e+01 1.000000e+01 1.150000e+01
    endloop
  endfacet
  facet normal 0.000000e+00 1.000000e+00 0.000000e+00
    outer loop
      vertex   -1.100000e+01 1.000000e+01 1.150000e+01
      vertex   -8.000000e+00 1.000000e+01 1.000000e+01
      vertex   -1.100000e+01 1.000000e+01 9.000000e+00
    endloop
  endfacet
  facet normal 0.000000e+00 1.000000e+00 0.000000e+00
    outer loop
      vertex   -1.100000e+01 1.000000e+01 9.000000e+00
      vertex   -8.000000e+00 1.000000e+01 1.000000e+01
      vertex   -8.000000e+00 1.000000e+01 9.000000e+00
    endloop
  endfacet
  facet normal -9.701425e-01 -0.000000e+00 -2.425356e-01
    outer loop
      vertex   -1.814929e+00 1.000000e+01 -1.474028e+01
      vertex   2.000000e+00 1.000000e+01 -3.000000e+01
      vertex   -1.814929e+00 0.000000e+00 -1.474028e+01
    endloop
  endfacet
  facet normal -9.701425e-01 0.000000e+00 -2.425356e-01
    outer loop
      vertex   -1.814929e+00 0.000000e+00 -1.474028e+01
      vertex   2.000000e+00 1.000000e+01 -3.000000e+01
      vertex   2.000000e+00 0.000000e+00 -3.000000e+01
    endloop
  endfacet
  facet normal -7.071068e-01 0.000000e+00 7.071068e-01
    outer loop
      vertex   -4.000000e+00 0.000000e+00 -1.030000e+01
      vertex   -2.000000e+00 0.000000e+00 -8.300000e+00
      vertex   -4.000000e+00 1.000000e+01 -1.030000e+01
    endloop
  endfacet
  facet normal -7.071068e-01 0.000000e+00 7.071068e-01
    outer loop
      vertex   -4.000000e+00 1.000000e+01 -1.030000e+01
      vertex   -2.000000e+00 0.000000e+00 -8.300000e+00
      vertex   -2.000000e+00 1.000000e+01 -8.300000e+00
    endloop
  endfacet
  facet normal -1.000000e+00 -0.000000e+00 -0.000000e+00
    outer loop
      vertex   -2.000000e+00 1.000000e+01 8.000000e+00
      vertex   -2.000000e+00 1.000000e+01 -8.300000e+00
      vertex   -2.000000e+00 0.000000e+00 8.000000e+00
    endloop
  endfacet
  facet normal -1.000000e+00 0.000000e+00 0.000000e+00
    outer loop
      vertex   -2.000000e+00 0.000000e+00 8.000000e+00
      vertex   -2.000000e+00 1.000000e+01 -8.300000e+00
      vertex   -2.000000e+00 0.000000e+00 -8.300000e+00
    endloop
  endfacet
  facet normal 7.071071e-01 0.000000e+00 7.071065e-01
    outer loop
      vertex   -9.050000e+01 1.000000e+01 -1.030000e+01
      vertex   -9.250000e+01 1.000000e+01 -8.300000e+00
      vertex   -9.050000e+01 0.000000e+00 -1.030000e+01
    endloop
  endfacet
  facet normal 7.071071e-01 0.000000e+00 7.071065e-01
    outer loop
      vertex   -9.050000e+01 0.000000e+00 -1.030000e+01
      vertex   -9.250000e+01 1.000000e+01 -8.300000e+00
      vertex   -9.250000e+01 0.000000e+00 -8.300000e+00
    endloop
  endfacet
  facet normal 1.000000e+00 0.000000e+00 0.000000e+00
    outer loop
      vertex   -9.250000e+01 0.000000e+00 -8.300000e+00
      vertex   -9.250000e+01 1.000000e+01 -8.300000e+00
      vertex   -9.250000e+01 0.000000e+00 7.700000e+00
    endloop
  endfacet
  facet normal 1.000000e+00 -0.000000e+00 0.000000e+00
    outer loop
      vertex   -9.250000e+01 0.000000e+00 7.700000e+00
      vertex   -9.250000e+01 1.000000e+01 -8.300000e+00
      vertex   -9.250000e+01 1.000000e+01 7.700000e+00
    endloop
  endfacet
  facet normal -7.071065e-01 -0.000000e+00 -7.071071e-01
    outer loop
      vertex   -9.550000e+01 1.000000e+01 -1.080000e+01
      vertex   -9.250000e+01 1.000000e+01 -1.380000e+01
      vertex   -9.550000e+01 0.000000e+00 -1.080000e+01
    endloop
  endfacet
  facet normal -7.071065e-01 0.000000e+00 -7.071071e-01
    outer loop
      vertex   -9.550000e+01 0.000000e+00 -1.080000e+01
      vertex   -9.250000e+01 1.000000e+01 -1.380000e+01
      vertex   -9.250000e+01 0.000000e+00 -1.380000e+01
    endloop
  endfacet
  facet normal -1.000000e+00 0.000000e+00 0.000000e+00
    outer loop
      vertex   -9.550000e+01 0.000000e+00 -1.080000e+01
      vertex   -9.550000e+01 0.000000e+00 8.200000e+00
      vertex   -9.550000e+01 1.000000e+01 -1.080000e+01
    endloop
  endfacet
  facet normal -1.000000e+00 0.000000e+00 0.000000e+00
    outer loop
      vertex   -9.550000e+01 1.000000e+01 -1.080000e+01
      vertex   -9.550000e+01 0.000000e+00 8.200000e+00
      vertex   -9.550000e+01 1.000000e+01 8.200000e+00
    endloop
  endfacet
  facet normal 0.000000e+00 -1.000000e+00 0.000000e+00
    outer loop
      vertex   -9.250000e+01 0.000000e+00 -1.380000e+01
      vertex   -9.050000e+01 0.000000e+00 -1.030000e+01
      vertex   -9.550000e+01 0.000000e+00 -1.080000e+01
    endloop
  endfacet
  facet normal 0.000000e+00 -1.000000e+00 0.000000e+00
    outer loop
      vertex   -9.550000e+01 0.000000e+00 -1.080000e+01
      vertex   -9.050000e+01 0.000000e+00 -1.030000e+01
      vertex   -9.250000e+01 0.000000e+00 -8.300000e+00
    endloop
  endfacet
  facet normal 0.000000e+00 -1.000000e+00 0.000000e+00
    outer loop
      vertex   -9.550000e+01 0.000000e+00 -1.080000e+01
      vertex   -9.250000e+01 0.000000e+00 -8.300000e+00
      vertex   -9.550000e+01 0.000000e+00 8.200000e+00
    endloop
  endfacet
  facet normal 0.000000e+00 -1.000000e+00 0.000000e+00
    outer loop
      vertex   -9.550000e+01 0.000000e+00 8.200000e+00
      vertex   -9.250000e+01 0.000000e+00 -8.300000e+00
      vertex   -9.250000e+01 0.000000e+00 7.700000e+00
    endloop
  endfacet
  facet normal 0.000000e+00 -1.000000e+00 0.000000e+00
    outer loop
      vertex   -9.550000e+01 0.000000e+00 8.200000e+00
      vertex   -9.250000e+01 0.000000e+00 7.700000e+00
      vertex   -9.350000e+01 0.000000e+00 1.020000e+01
    endloop
  endfacet
  facet normal 0.000000e+00 -1.000000e+00 0.000000e+00
    outer loop
      vertex   -9.350000e+01 0.000000e+00 1.020000e+01
      vertex   -9.250000e+01 0.000000e+00 7.700000e+00
      vertex   -9.000000e+01 0.000000e+00 1.020000e+01
    endloop
  endfacet
  facet normal 0.000000e+00 -1.000000e+00 0.000000e+00
    outer loop
      vertex   -9.250000e+01 0.000000e+00 -1.380000e+01
      vertex   -3.019224e+00 0.000000e+00 -1.380000e+01
      vertex   -9.050000e+01 0.000000e+00 -1.030000e+01
    endloop
  endfacet
  facet normal 0.000000e+00 -1.000000e+00 0.000000e+00
    outer loop
      vertex   -9.050000e+01 0.000000e+00 -1.030000e+01
      vertex   -3.019224e+00 0.000000e+00 -1.380000e+01
      vertex   -4.000000e+00 0.000000e+00 -1.030000e+01
    endloop
  endfacet
  facet normal 0.000000e+00 -1.000000e+00 0.000000e+00
    outer loop
      vertex   -4.000000e+00 0.000000e+00 -1.030000e+01
      vertex   -3.019224e+00 0.000000e+00 -1.380000e+01
      vertex   -2.000000e+00 0.000000e+00 -8.300000e+00
    endloop
  endfacet
  facet normal 0.000000e+00 -1.000000e+00 -0.000000e+00
    outer loop
      vertex   -2.000000e+00 0.000000e+00 -8.300000e+00
      vertex   -3.019224e+00 0.000000e+00 -1.380000e+01
      vertex   -1.814929e+00 0.000000e+00 -1.474028e+01
    endloop
  endfacet
  facet normal 0.000000e+00 -1.000000e+00 0.000000e+00
    outer loop
      vertex   -2.000000e+00 0.000000e+00 -8.300000e+00
      vertex   -1.814929e+00 0.000000e+00 -1.474028e+01
      vertex   3.000000e+00 0.000000e+00 -3.000000e+01
    endloop
  endfacet
  facet normal 0.000000e+00 -1.000000e+00 0.000000e+00
    outer loop
      vertex   3.000000e+00 0.000000e+00 -3.000000e+01
      vertex   -1.814929e+00 0.000000e+00 -1.474028e+01
      vertex   2.000000e+00 0.000000e+00 -3.000000e+01
    endloop
  endfacet
  facet normal 0.000000e+00 -1.000000e+00 0.000000e+00
    outer loop
      vertex   -2.000000e+00 0.000000e+00 -8.300000e+00
      vertex   3.000000e+00 0.000000e+00 -3.000000e+01
      vertex   -2.000000e+00 0.000000e+00 8.000000e+00
    endloop
  endfacet
  facet normal 0.000000e+00 -1.000000e+00 0.000000e+00
    outer loop
      vertex   -2.000000e+00 0.000000e+00 8.000000e+00
      vertex   3.000000e+00 0.000000e+00 -3.000000e+01
      vertex   3.000000e+00 0.000000e+00 3.000000e+01
    endloop
  endfacet
  facet normal 0.000000e+00 -1.000000e+00 0.000000e+00
    outer loop
      vertex   -2.000000e+00 0.000000e+00 8.000000e+00
      vertex   3.000000e+00 0.000000e+00 3.000000e+01
      vertex   -2.139929e+00 0.000000e+00 1.344028e+01
    endloop
  endfacet
  facet normal 0.000000e+00 -1.000000e+00 0.000000e+00
    outer loop
      vertex   -2.139929e+00 0.000000e+00 1.344028e+01
      vertex   3.000000e+00 0.000000e+00 3.000000e+01
      vertex   2.000000e+00 0.000000e+00 3.000000e+01
    endloop
  endfacet
  facet normal 0.000000e+00 -1.000000e+00 0.000000e+00
    outer loop
      vertex   -2.000000e+00 0.000000e+00 8.000000e+00
      vertex   -2.139929e+00 0.000000e+00 1.344028e+01
      vertex   -4.000000e+00 0.000000e+00 1.000000e+01
    endloop
  endfacet
  facet normal 0.000000e+00 -1.000000e+00 0.000000e+00
    outer loop
      vertex   -4.000000e+00 0.000000e+00 1.000000e+01
      vertex   -2.139929e+00 0.000000e+00 1.344028e+01
      vertex   -4.625000e+00 0.000000e+00 1.150000e+01
    endloop
  endfacet
  facet normal 0.000000e+00 -1.000000e+00 0.000000e+00
    outer loop
      vertex   -4.000000e+00 0.000000e+00 1.000000e+01
      vertex   -4.625000e+00 0.000000e+00 1.150000e+01
      vertex   -8.000000e+00 0.000000e+00 1.000000e+01
    endloop
  endfacet
  facet normal 0.000000e+00 -1.000000e+00 0.000000e+00
    outer loop
      vertex   -8.000000e+00 0.000000e+00 1.000000e+01
      vertex   -4.625000e+00 0.000000e+00 1.150000e+01
      vertex   -1.100000e+01 0.000000e+00 1.150000e+01
    endloop
  endfacet
  facet normal -0.000000e+00 -1.000000e+00 0.000000e+00
    outer loop
      vertex   -8.000000e+00 0.000000e+00 1.000000e+01
      vertex   -1.100000e+01 0.000000e+00 1.150000e+01
      vertex   -1.100000e+01 0.000000e+00 9.000000e+00
    endloop
  endfacet
  facet normal 0.000000e+00 -1.000000e+00 0.000000e+00
    outer loop
      vertex   -1.100000e+01 0.000000e+00 9.000000e+00
      vertex   -8.000000e+00 0.000000e+00 9.000000e+00
      vertex   -8.000000e+00 0.000000e+00 1.000000e+01
    endloop
  endfacet
  facet normal -7.071071e-01 0.000000e+00 7.071065e-01
    outer loop
      vertex   -9.550000e+01 0.000000e+00 8.200000e+00
      vertex   -9.350000e+01 0.000000e+00 1.020000e+01
      vertex   -9.550000e+01 1.000000e+01 8.200000e+00
    endloop
  endfacet
  facet normal -7.071071e-01 0.000000e+00 7.071065e-01
    outer loop
      vertex   -9.550000e+01 1.000000e+01 8.200000e+00
      vertex   -9.350000e+01 0.000000e+00 1.020000e+01
      vertex   -9.350000e+01 1.000000e+01 1.020000e+01
    endloop
  endfacet
  facet normal 7.071068e-01 0.000000e+00 -7.071068e-01
    outer loop
      vertex   -9.250000e+01 1.000000e+01 7.700000e+00
      vertex   -9.000000e+01 1.000000e+01 1.020000e+01
      vertex   -9.250000e+01 0.000000e+00 7.700000e+00
    endloop
  endfacet
  facet normal 7.071068e-01 0.000000e+00 -7.071068e-01
    outer loop
      vertex   -9.250000e+01 0.000000e+00 7.700000e+00
      vertex   -9.000000e+01 1.000000e+01 1.020000e+01
      vertex   -9.000000e+01 0.000000e+00 1.020000e+01
    endloop
  endfacet
  facet normal -6.154121e-01 -0.000000e+00 -7.882055e-01
    outer loop
      vertex   -3.019224e+00 1.000000e+01 -1.380000e+01
      vertex   -1.814929e+00 1.000000e+01 -1.474028e+01
      vertex   -3.019224e+00 0.000000e+00 -1.380000e+01
    endloop
  endfacet
  facet normal -6.154121e-01 0.000000e+00 -7.882055e-01
    outer loop
      vertex   -3.019224e+00 0.000000e+00 -1.380000e+01
      vertex   -1.814929e+00 1.000000e+01 -1.474028e+01
      vertex   -1.814929e+00 0.000000e+00 -1.474028e+01
    endloop
  endfacet
  facet normal 0.000000e+00 0.000000e+00 -1.000000e+00
    outer loop
      vertex   3.000000e+00 0.000000e+00 -3.000000e+01
      vertex   2.000000e+00 0.000000e+00 -3.000000e+01
      vertex   3.000000e+00 1.000000e+01 -3.000000e+01
    endloop
  endfacet
  facet normal -0.000000e+00 0.000000e+00 -1.000000e+00
    outer loop
      vertex   3.000000e+00 1.000000e+01 -3.000000e+01
      vertex   2.000000e+00 0.000000e+00 -3.000000e+01
      vertex   2.000000e+00 1.000000e+01 -3.000000e+01
    endloop
  endfacet
  facet normal 1.000000e+00 -0.000000e+00 0.000000e+00
    outer loop
      vertex   3.000000e+00 0.000000e+00 3.000000e+01
      vertex   3.000000e+00 0.000000e+00 -3.000000e+01
      vertex   3.000000e+00 1.000000e+01 3.000000e+01
    endloop
  endfacet
  facet normal 1.000000e+00 0.000000e+00 0.000000e+00
    outer loop
      vertex   3.000000e+00 1.000000e+01 3.000000e+01
      vertex   3.000000e+00 0.000000e+00 -3.000000e+01
      vertex   3.000000e+00 1.000000e+01 -3.000000e+01
    endloop
  endfacet
  facet normal 0.000000e+00 0.000000e+00 1.000000e+00
    outer loop
      vertex   2.000000e+00 0.000000e+00 3.000000e+01
      vertex   3.000000e+00 0.000000e+00 3.000000e+01
      vertex   2.000000e+00 1.000000e+01 3.000000e+01
    endloop
  endfacet
  facet normal -0.000000e+00 0.000000e+00 1.000000e+00
    outer loop
      vertex   2.000000e+00 1.000000e+01 3.000000e+01
      vertex   3.000000e+00 0.000000e+00 3.000000e+01
      vertex   3.000000e+00 1.000000e+01 3.000000e+01
    endloop
  endfacet
  facet normal 0.000000e+00 0.000000e+00 1.000000e+00
    outer loop
      vertex   -4.625000e+00 1.000000e+01 1.150000e+01
      vertex   -1.100000e+01 1.000000e+01 1.150000e+01
      vertex   -4.625000e+00 0.000000e+00 1.150000e+01
    endloop
  endfacet
  facet normal 0.000000e+00 0.000000e+00 1.000000e+00
    outer loop
      vertex   -4.625000e+00 0.000000e+00 1.150000e+01
      vertex   -1.100000e+01 1.000000e+01 1.150000e+01
      vertex   -1.100000e+01 0.000000e+00 1.150000e+01
    endloop
  endfacet
  facet normal -1.000000e+00 0.000000e+00 0.000000e+00
    outer loop
      vertex   -1.100000e+01 0.000000e+00 9.000000e+00
      vertex   -1.100000e+01 0.000000e+00 1.150000e+01
      vertex   -1.100000e+01 1.000000e+01 9.000000e+00
    endloop
  endfacet
  facet normal -1.000000e+00 0.000000e+00 0.000000e+00
    outer loop
      vertex   -1.100000e+01 1.000000e+01 9.000000e+00
      vertex   -1.100000e+01 0.000000e+00 1.150000e+01
      vertex   -1.100000e+01 1.000000e+01 1.150000e+01
    endloop
  endfacet
  facet normal 0.000000e+00 0.000000e+00 -1.000000e+00
    outer loop
      vertex   -8.000000e+00 0.000000e+00 9.000000e+00
      vertex   -1.100000e+01 0.000000e+00 9.000000e+00
      vertex   -8.000000e+00 1.000000e+01 9.000000e+00
    endloop
  endfacet
  facet normal -0.000000e+00 0.000000e+00 -1.000000e+00
    outer loop
      vertex   -8.000000e+00 1.000000e+01 9.000000e+00
      vertex   -1.100000e+01 0.000000e+00 9.000000e+00
      vertex   -1.100000e+01 1.000000e+01 9.000000e+00
    endloop
  endfacet
  facet normal 1.000000e+00 -0.000000e+00 0.000000e+00
    outer loop
      vertex   -8.000000e+00 0.000000e+00 1.000000e+01
      vertex   -8.000000e+00 0.000000e+00 9.000000e+00
      vertex   -8.000000e+00 1.000000e+01 1.000000e+01
    endloop
  endfacet
  facet normal 1.000000e+00 0.000000e+00 0.000000e+00
    outer loop
      vertex   -8.000000e+00 1.000000e+01 1.000000e+01
      vertex   -8.000000e+00 0.000000e+00 9.000000e+00
      vertex   -8.000000e+00 1.000000e+01 9.000000e+00
    endloop
  endfacet
  facet normal 0.000000e+00 0.000000e+00 1.000000e+00
    outer loop
      vertex   -4.000000e+00 1.000000e+01 -1.030000e+01
      vertex   -9.050000e+01 1.000000e+01 -1.030000e+01
      vertex   -4.000000e+00 0.000000e+00 -1.030000e+01
    endloop
  endfacet
  facet normal 0.000000e+00 0.000000e+00 1.000000e+00
    outer loop
      vertex   -4.000000e+00 0.000000e+00 -1.030000e+01
      vertex   -9.050000e+01 1.000000e+01 -1.030000e+01
      vertex   -9.050000e+01 0.000000e+00 -1.030000e+01
    endloop
  endfacet
  facet normal 0.000000e+00 0.000000e+00 1.000000e+00
    outer loop
      vertex   -9.350000e+01 0.000000e+00 1.020000e+01
      vertex   -9.000000e+01 0.000000e+00 1.020000e+01
      vertex   -9.350000e+01 1.000000e+01 1.020000e+01
    endloop
  endfacet
  facet normal -0.000000e+00 0.000000e+00 1.000000e+00
    outer loop
      vertex   -9.350000e+01 1.000000e+01 1.020000e+01
      vertex   -9.000000e+01 0.000000e+00 1.020000e+01
      vertex   -9.000000e+01 1.000000e+01 1.020000e+01
    endloop
  endfacet
  facet normal 0.000000e+00 0.000000e+00 -1.000000e+00
    outer loop
      vertex   -3.019224e+00 0.000000e+00 -1.380000e+01
      vertex   -9.250000e+01 0.000000e+00 -1.380000e+01
      vertex   -3.019224e+00 1.000000e+01 -1.380000e+01
    endloop
  endfacet
  facet normal -0.000000e+00 0.000000e+00 -1.000000e+00
    outer loop
      vertex   -3.019224e+00 1.000000e+01 -1.380000e+01
      vertex   -9.250000e+01 0.000000e+00 -1.380000e+01
      vertex   -9.250000e+01 1.000000e+01 -1.380000e+01
    endloop
  endfacet
endsolid
